<?xml version="1.0" encoding="UTF-8" standalone="no"?><!DOCTYPE svg PUBLIC "-//W3C//DTD SVG 1.1//EN" "http://www.w3.org/Graphics/SVG/1.1/DTD/svg11.dtd"><svg width="100%" height="100%" viewBox="0 0 19 25" version="1.1" xmlns="http://www.w3.org/2000/svg" xmlns:xlink="http://www.w3.org/1999/xlink" xml:space="preserve" xmlns:serif="http://www.serif.com/" style="fill-rule:evenodd;clip-rule:evenodd;stroke-linejoin:round;stroke-miterlimit:2;"><g><path d="M2.454,21.739l14.045,0l0,-19.059l-14.045,0l0,19.059Zm15.206,2.628l-16.366,0c-0.641,0 -1.161,-0.588 -1.161,-1.314l0,-21.688c0,-0.726 0.52,-1.314 1.161,-1.314l16.366,0c0.641,0 1.161,0.588 1.161,1.314l0,21.688c0,0.726 -0.52,1.314 -1.161,1.314" style="fill:#f00;fill-rule:nonzero;"/><path d="M13.367,14.622l-7.78,0c-0.565,0 -1.023,-0.408 -1.023,-0.911c0,-0.503 0.458,-0.91 1.023,-0.91l7.78,0c0.565,0 1.024,0.407 1.024,0.91c0,0.503 -0.459,0.911 -1.024,0.911" style="fill:#f00;fill-rule:nonzero;"/><path d="M13.367,17.537l-7.78,0c-0.565,0 -1.023,-0.408 -1.023,-0.911c0,-0.503 0.458,-0.911 1.023,-0.911l7.78,0c0.565,0 1.024,0.408 1.024,0.911c0,0.503 -0.459,0.911 -1.024,0.911" style="fill:#f00;fill-rule:nonzero;"/><path d="M12.856,4.309l0.02,0.001l0.02,0l0.019,0.001l0.02,0.001l0.02,0.002l0.02,0.001l0.019,0.002l0.039,0.005l0.039,0.005l0.039,0.006l0.038,0.008l0.037,0.008l0.038,0.009l0.037,0.01l0.037,0.011l0.036,0.012l0.036,0.013l0.035,0.013l0.036,0.014l0.034,0.016l0.034,0.016l0.034,0.016l0.033,0.018l0.033,0.018l0.033,0.019l0.031,0.02l0.032,0.021l0.03,0.021l0.031,0.022l0.029,0.023l0.029,0.023l0.029,0.024l0.028,0.025l0.027,0.026l0.027,0.026l0.026,0.026l0.025,0.028l0.025,0.028l0.024,0.028l0.024,0.029l0.022,0.03l0.022,0.03l0.022,0.031l0.02,0.031l0.02,0.032l0.019,0.032l0.019,0.033l0.017,0.033l0.017,0.034l0.016,0.034l0.015,0.035l0.015,0.035l0.013,0.036l0.013,0.036l0.012,0.036l0.011,0.037l0.01,0.037l0.009,0.037l0.008,0.038l0.007,0.038l0.007,0.038l0.005,0.039l0.005,0.039l0.001,0.02l0.002,0.02l0.001,0.019l0.002,0.02l0,0.02l0.001,0.02l0,0.02l0.001,0.02l0,3.11l-0.001,0.02l0,0.02l-0.001,0.02l0,0.02l-0.002,0.02l-0.001,0.02l-0.002,0.02l-0.001,0.019l-0.005,0.039l-0.005,0.039l-0.007,0.038l-0.007,0.039l-0.008,0.037l-0.009,0.038l-0.01,0.037l-0.011,0.037l-0.012,0.036l-0.013,0.036l-0.013,0.035l-0.015,0.035l-0.015,0.035l-0.016,0.034l-0.017,0.034l-0.017,0.033l-0.019,0.033l-0.019,0.032l-0.02,0.032l-0.02,0.032l-0.022,0.03l-0.022,0.031l-0.022,0.029l-0.024,0.029l-0.024,0.029l-0.025,0.028l-0.025,0.027l-0.026,0.027l-0.027,0.026l-0.027,0.025l-0.028,0.025l-0.029,0.024l-0.029,0.024l-0.029,0.022l-0.031,0.022l-0.03,0.022l-0.032,0.02l-0.031,0.02l-0.033,0.019l-0.033,0.019l-0.033,0.017l-0.034,0.017l-0.034,0.016l-0.034,0.015l-0.036,0.014l-0.035,0.014l-0.036,0.013l-0.036,0.011l-0.037,0.011l-0.037,0.01l-0.038,0.01l-0.037,0.008l-0.038,0.007l-0.039,0.006l-0.039,0.006l-0.039,0.004l-0.019,0.002l-0.02,0.002l-0.02,0.001l-0.02,0.001l-0.019,0.001l-0.02,0.001l-0.02,0l-0.021,0l-6.716,0l-0.02,0l-0.021,0l-0.019,-0.001l-0.02,-0.001l-0.02,-0.001l-0.02,-0.001l-0.02,-0.002l-0.019,-0.002l-0.039,-0.004l-0.039,-0.006l-0.039,-0.006l-0.038,-0.007l-0.037,-0.008l-0.038,-0.01l-0.037,-0.01l-0.037,-0.011l-0.036,-0.011l-0.036,-0.013l-0.035,-0.014l-0.035,-0.014l-0.035,-0.015l-0.034,-0.016l-0.034,-0.017l-0.033,-0.017l-0.033,-0.019l-0.033,-0.019l-0.031,-0.02l-0.032,-0.02l-0.03,-0.022l-0.031,-0.022l-0.029,-0.022l-0.029,-0.024l-0.029,-0.024l-0.028,-0.025l-0.027,-0.025l-0.027,-0.026l-0.026,-0.027l-0.025,-0.027l-0.025,-0.028l-0.024,-0.029l-0.024,-0.029l-0.022,-0.029l-0.022,-0.031l-0.022,-0.03l-0.02,-0.032l-0.02,-0.032l-0.019,-0.032l-0.019,-0.033l-0.017,-0.033l-0.017,-0.034l-0.016,-0.034l-0.015,-0.035l-0.015,-0.035l-0.013,-0.035l-0.013,-0.036l-0.012,-0.036l-0.01,-0.037l-0.01,-0.037l-0.01,-0.038l-0.008,-0.037l-0.007,-0.039l-0.007,-0.038l-0.005,-0.039l-0.004,-0.039l-0.002,-0.019l-0.002,-0.02l-0.001,-0.02l-0.001,-0.02l-0.001,-0.02l-0.001,-0.02l0,-0.02l0,-0.02l0,-3.11l0,-0.02l0,-0.02l0.001,-0.02l0.001,-0.02l0.001,-0.02l0.001,-0.019l0.002,-0.02l0.002,-0.02l0.004,-0.039l0.005,-0.039l0.007,-0.038l0.007,-0.038l0.008,-0.038l0.01,-0.037l0.01,-0.037l0.01,-0.037l0.012,-0.036l0.013,-0.036l0.013,-0.036l0.015,-0.035l0.015,-0.035l0.016,-0.034l0.017,-0.034l0.017,-0.033l0.019,-0.033l0.019,-0.032l0.02,-0.032l0.02,-0.031l0.022,-0.031l0.022,-0.03l0.022,-0.03l0.024,-0.029l0.024,-0.028l0.025,-0.028l0.025,-0.028l0.026,-0.026l0.027,-0.026l0.027,-0.026l0.028,-0.025l0.029,-0.024l0.029,-0.023l0.029,-0.023l0.031,-0.022l0.03,-0.021l0.032,-0.021l0.031,-0.02l0.033,-0.019l0.033,-0.018l0.033,-0.018l0.034,-0.016l0.034,-0.016l0.035,-0.016l0.035,-0.014l0.035,-0.013l0.036,-0.013l0.036,-0.012l0.037,-0.011l0.037,-0.01l0.038,-0.009l0.037,-0.008l0.038,-0.008l0.039,-0.006l0.039,-0.005l0.039,-0.005l0.019,-0.002l0.02,-0.001l0.02,-0.002l0.02,-0.001l0.02,-0.001l0.019,0l0.021,-0.001l0.02,0l6.716,0l0.021,0Zm-6.73,1.509l-0.007,0l-0.003,0l-0.001,0l0,0l-0.004,0.001l-0.001,0l-0.001,0l-0.001,0l-0.001,0l0,0l-0.001,0l-0.001,0.001l-0.001,0l-0.001,0l-0.001,0.001l0,0l-0.001,0l-0.001,0.001l-0.001,0l-0.001,0.001l-0.001,0l0,0.001l-0.001,0l-0.002,0.001l-0.001,0.001l0,0l-0.001,0.001l-0.002,0.001l-0.001,0.001l-0.001,0.001l-0.001,0.001l0,0l-0.002,0.002l-0.001,0.001l-0.001,0.001l0,0.001l-0.001,0l-0.001,0.002l-0.001,0.001l-0.001,0.001l0,0l-0.001,0.002l0,0.001l-0.001,0.001l0,0.001l-0.001,0.001l-0.001,0.001l0,0.001l0,0.001l0,0l-0.001,0.001l0,0.002l-0.001,0.002l0,0.001l0,0.002l0,0.003l0,0.001l-0.001,0.001l0,0.001l0,0.006l0,3.101l0.001,0.008l0,0.007l0.002,0.005l0.003,0.006l0.003,0.005l0.003,0.003l0.004,0.005l0.005,0.004l0.005,0.003l0.006,0.002l0.004,0.001l0.006,0.001l0.003,0l0.006,0l6.708,0l0.006,0l0.001,0l0.001,0l0.001,0l0.002,0l0.002,0l0.002,-0.001l0,0l0.001,0l0,0l0.001,0l0.001,0l0.001,-0.001l0.001,0l0,0l0.001,0l0.001,-0.001l0.002,-0.001l0.001,0l0,0l0.001,-0.001l0,0l0.002,-0.001l0.001,-0.001l0,0l0.001,-0.001l0.002,-0.001l0.001,-0.001l0.001,-0.001l0.001,-0.001l0.001,-0.001l0.002,-0.002l0.001,0l0,-0.001l0.002,-0.002l0,0l0.001,-0.001l0.001,-0.001l0.001,-0.002l0,-0.001l0,0l0.001,-0.002l0.001,0l0,-0.001l0.001,-0.001l0,-0.001l0.001,-0.001l0.001,-0.002l0,-0.001l0,0l0,-0.001l0,-0.001l0.001,-0.001l0,-0.001l0,-0.001l0,-0.001l0.001,-0.004l0,-0.001l0,-0.001l0,-0.001l0,-0.005l0,-3.101l0,-0.006l0,-0.001l0,-0.001l0,-0.001l-0.001,-0.004l0,-0.001l0,0l0,-0.001l-0.001,-0.001l0,-0.001l0,-0.001l0,-0.001l0,0l-0.001,-0.003l-0.001,0l0,-0.001l-0.001,-0.002l0,0l-0.001,-0.001l-0.001,-0.002l0,0l0,-0.001l-0.001,-0.001l-0.001,-0.001l-0.001,-0.001l0,-0.001l-0.002,-0.001l0,-0.001l-0.001,-0.001l-0.002,-0.002l-0.001,-0.001l-0.001,-0.001l-0.001,-0.001l-0.001,-0.001l-0.002,-0.001l-0.001,0l0,-0.001l-0.001,0l-0.002,-0.001l0,-0.001l-0.001,0l0,0l-0.001,-0.001l-0.003,-0.001l0,0l-0.001,-0.001l-0.001,0l-0.001,0l-0.001,-0.001l-0.001,0l0,0l-0.001,0l-0.001,0l-0.001,0l-0.001,0l-0.004,-0.001l0,0l0,0l-0.004,0l-0.006,0l-6.703,0Z" style="fill:#f00;"/></g></svg>