<?xml version="1.0" encoding="UTF-8" standalone="no"?><!DOCTYPE svg PUBLIC "-//W3C//DTD SVG 1.1//EN" "http://www.w3.org/Graphics/SVG/1.1/DTD/svg11.dtd"><svg width="100%" height="100%" viewBox="0 0 12 15" version="1.1" xmlns="http://www.w3.org/2000/svg" xmlns:xlink="http://www.w3.org/1999/xlink" xml:space="preserve" xmlns:serif="http://www.serif.com/" style="fill-rule:evenodd;clip-rule:evenodd;stroke-linejoin:round;stroke-miterlimit:2;"><g><path d="M5.781,1.681c-0.676,0 -1.226,0.549 -1.226,1.225l0,3.87c0,0.675 0.55,1.225 1.226,1.225c0.675,0 1.225,-0.55 1.225,-1.225l0,-3.87c0,-0.676 -0.55,-1.225 -1.225,-1.225m0,7.927c-1.562,0 -2.832,-1.271 -2.832,-2.832l0,-3.87c0,-1.562 1.27,-2.832 2.832,-2.832c1.561,0 2.832,1.27 2.832,2.832l0,3.87c0,1.561 -1.271,2.832 -2.832,2.832" style="fill:#f00;fill-rule:nonzero;"/><path d="M5.781,12.532c-3.119,0 -5.656,-2.537 -5.656,-5.656c0,-0.444 0.36,-0.803 0.803,-0.803c0.444,0 0.804,0.359 0.804,0.803c0,2.233 1.816,4.049 4.049,4.049c2.232,0 4.048,-1.816 4.048,-4.049c0,-0.444 0.36,-0.803 0.804,-0.803c0.443,0 0.803,0.359 0.803,0.803c0,3.119 -2.537,5.656 -5.655,5.656" style="fill:#f00;fill-rule:nonzero;"/><path d="M5.743,14.856c-0.443,0 -0.808,-0.359 -0.808,-0.803l0,-2.25c0,-0.443 0.365,-0.803 0.808,-0.803c0.444,0 0.809,0.36 0.809,0.803l0,2.25c0,0.444 -0.365,0.803 -0.809,0.803" style="fill:#f00;fill-rule:nonzero;"/></g></svg>