<?xml version="1.0" encoding="UTF-8" standalone="no"?><!DOCTYPE svg PUBLIC "-//W3C//DTD SVG 1.1//EN" "http://www.w3.org/Graphics/SVG/1.1/DTD/svg11.dtd"><svg width="100%" height="100%" viewBox="0 0 27 26" version="1.1" xmlns="http://www.w3.org/2000/svg" xmlns:xlink="http://www.w3.org/1999/xlink" xml:space="preserve" xmlns:serif="http://www.serif.com/" style="fill-rule:evenodd;clip-rule:evenodd;stroke-linejoin:round;stroke-miterlimit:2;"><g id="Menu-Icon" serif:id="Menu Icon"><path d="M17.006,4.009c-0.521,-0.903 -1.678,-1.213 -2.582,-0.692l-13.303,7.681c-0.904,0.521 -1.214,1.679 -0.692,2.582c0.522,0.904 1.679,1.214 2.582,0.692l13.304,-7.681c0.903,-0.521 1.213,-1.678 0.691,-2.582Z" style="fill:#f00;"/><path d="M17.006,21.261c0.522,-0.904 0.212,-2.061 -0.691,-2.583l-13.304,-7.68c-0.903,-0.522 -2.06,-0.212 -2.582,0.692c-0.522,0.903 -0.212,2.06 0.692,2.582l13.303,7.681c0.904,0.521 2.061,0.211 2.582,-0.692Z" style="fill:#f00;"/><path d="M26.33,12.635c0,-1.043 -0.847,-1.89 -1.89,-1.89l-22.374,0c-1.043,0 -1.89,0.847 -1.89,1.89c0,1.043 0.847,1.89 1.89,1.89l22.374,0c1.043,0 1.89,-0.847 1.89,-1.89Z" style="fill:#f00;"/></g></svg>