<?xml version="1.0" encoding="UTF-8" standalone="no"?><!DOCTYPE svg PUBLIC "-//W3C//DTD SVG 1.1//EN" "http://www.w3.org/Graphics/SVG/1.1/DTD/svg11.dtd"><svg width="100%" height="100%" viewBox="0 0 27 26" version="1.1" xmlns="http://www.w3.org/2000/svg" xmlns:xlink="http://www.w3.org/1999/xlink" xml:space="preserve" xmlns:serif="http://www.serif.com/" style="fill-rule:evenodd;clip-rule:evenodd;stroke-linejoin:round;stroke-miterlimit:2;"><g><path d="M17.463,18.392c-0.366,0 -0.731,-0.14 -1.01,-0.419l-7.926,-7.926c-0.558,-0.558 -0.558,-1.461 0,-2.019c0.558,-0.559 1.463,-0.559 2.02,0l7.926,7.925c0.558,0.558 0.558,1.462 0,2.02c-0.279,0.279 -0.645,0.419 -1.01,0.419" style="fill:#f00;fill-rule:nonzero;"/><path d="M9.537,18.392c-0.365,0 -0.731,-0.14 -1.01,-0.419c-0.558,-0.558 -0.558,-1.462 0,-2.02l7.926,-7.925c0.557,-0.559 1.462,-0.559 2.02,0c0.558,0.558 0.558,1.461 0,2.019l-7.926,7.926c-0.279,0.279 -0.644,0.419 -1.01,0.419" style="fill:#f00;fill-rule:nonzero;"/><path d="M13.5,2.857c-5.593,0 -10.143,4.55 -10.143,10.143c0,5.593 4.55,10.143 10.143,10.143c5.593,0 10.143,-4.55 10.143,-10.143c0,-5.593 -4.55,-10.143 -10.143,-10.143m0,23.143c-7.168,0 -13,-5.832 -13,-13c0,-7.168 5.832,-13 13,-13c7.168,0 13,5.832 13,13c0,7.168 -5.832,13 -13,13" style="fill:#f00;fill-rule:nonzero;"/></g></svg>