<?xml version="1.0" encoding="UTF-8" standalone="no"?><!DOCTYPE svg PUBLIC "-//W3C//DTD SVG 1.1//EN" "http://www.w3.org/Graphics/SVG/1.1/DTD/svg11.dtd"><svg width="100%" height="100%" viewBox="0 0 32 32" version="1.1" xmlns="http://www.w3.org/2000/svg" xmlns:xlink="http://www.w3.org/1999/xlink" xml:space="preserve" xmlns:serif="http://www.serif.com/" style="fill-rule:evenodd;clip-rule:evenodd;stroke-linejoin:round;stroke-miterlimit:2;"><rect id="Artboard2" x="0" y="0" width="32" height="32" style="fill:none;"/><rect id="Artboard1" x="0" y="0" width="32" height="19.799" style="fill:none;"/><g><path d="M30.305,32c-0.433,0 -0.867,-0.165 -1.198,-0.497l-28.611,-28.61c-0.661,-0.662 -0.661,-1.735 0,-2.397c0.662,-0.661 1.735,-0.661 2.397,0l28.611,28.612c0.661,0.662 0.661,1.734 0,2.395c-0.331,0.332 -0.765,0.497 -1.199,0.497" style="fill:#fff;fill-rule:nonzero;"/><path d="M1.695,32c-0.434,0 -0.868,-0.165 -1.199,-0.497c-0.661,-0.661 -0.661,-1.733 0,-2.395l28.611,-28.612c0.662,-0.661 1.735,-0.661 2.397,0c0.661,0.662 0.661,1.735 0,2.397l-28.611,28.61c-0.331,0.332 -0.765,0.497 -1.198,0.497" style="fill:#fff;fill-rule:nonzero;"/></g></svg>