<?xml version="1.0" encoding="UTF-8" standalone="no"?><!DOCTYPE svg PUBLIC "-//W3C//DTD SVG 1.1//EN" "http://www.w3.org/Graphics/SVG/1.1/DTD/svg11.dtd"><svg width="100%" height="100%" viewBox="0 0 113 109" version="1.1" xmlns="http://www.w3.org/2000/svg" xmlns:xlink="http://www.w3.org/1999/xlink" xml:space="preserve" xmlns:serif="http://www.serif.com/" style="fill-rule:evenodd;clip-rule:evenodd;stroke-linejoin:round;stroke-miterlimit:2;"><g><path d="M72.763,76.633c-1.525,0 -3.046,-0.583 -4.209,-1.745l-33.025,-33.025c-2.325,-2.325 -2.325,-6.088 0,-8.413c2.325,-2.329 6.096,-2.329 8.417,0l33.025,33.021c2.325,2.325 2.325,6.092 0,8.417c-1.163,1.162 -2.688,1.745 -4.209,1.745" style="fill:#fff;fill-rule:nonzero;"/><path d="M39.738,76.633c-1.521,0 -3.046,-0.583 -4.209,-1.745c-2.325,-2.325 -2.325,-6.092 0,-8.417l33.025,-33.021c2.321,-2.329 6.092,-2.329 8.417,0c2.325,2.325 2.325,6.088 0,8.413l-33.025,33.025c-1.163,1.162 -2.683,1.745 -4.208,1.745" style="fill:#fff;fill-rule:nonzero;"/><path d="M56.25,11.904c-23.304,0 -42.263,18.959 -42.263,42.263c0,23.304 18.959,42.262 42.263,42.262c23.304,0 42.263,-18.958 42.263,-42.262c-0.001,-23.305 -18.959,-42.263 -42.263,-42.263m0,96.429c-29.867,0 -54.167,-24.3 -54.167,-54.166c0,-29.867 24.3,-54.167 54.167,-54.167c29.867,0 54.167,24.3 54.167,54.167c0,29.866 -24.3,54.166 -54.167,54.166" style="fill:#fff;fill-rule:nonzero;"/></g></svg>