<?xml version="1.0" encoding="UTF-8" standalone="no"?><!DOCTYPE svg PUBLIC "-//W3C//DTD SVG 1.1//EN" "http://www.w3.org/Graphics/SVG/1.1/DTD/svg11.dtd"><svg width="100%" height="100%" viewBox="0 0 31 30" version="1.1" xmlns="http://www.w3.org/2000/svg" xmlns:xlink="http://www.w3.org/1999/xlink" xml:space="preserve" xmlns:serif="http://www.serif.com/" style="fill-rule:evenodd;clip-rule:evenodd;stroke-linejoin:round;stroke-miterlimit:2;"><path d="M4.18,3.811c-0.286,0 -0.519,0.231 -0.519,0.515l0,14.291c0,0.285 0.233,0.516 0.519,0.516l11.404,0c1.019,0 1.992,0.38 2.739,1.07l3.557,3.29l0,-0.362c0,-2.204 1.805,-3.998 4.023,-3.998l1.064,0c0.286,0 0.519,-0.231 0.519,-0.516l0,-14.291c0,-0.284 -0.233,-0.515 -0.519,-0.515l-22.787,0Zm19.452,25.421c-0.434,0 -0.862,-0.161 -1.193,-0.467l-6.502,-6.012c-0.096,-0.089 -0.222,-0.138 -0.353,-0.138l-11.404,0c-2.218,0 -4.023,-1.793 -4.023,-3.998l0,-14.291c0,-2.204 1.805,-3.998 4.023,-3.998l22.787,0c2.218,0 4.023,1.794 4.023,3.998l0,14.291c0,2.205 -1.805,3.998 -4.023,3.998l-1.064,0c-0.286,0 -0.519,0.232 -0.519,0.516l0,4.36c0,0.693 -0.413,1.319 -1.053,1.596c-0.224,0.097 -0.462,0.145 -0.699,0.145"/></svg>