<?xml version="1.0" encoding="UTF-8" standalone="no"?><!DOCTYPE svg PUBLIC "-//W3C//DTD SVG 1.1//EN" "http://www.w3.org/Graphics/SVG/1.1/DTD/svg11.dtd"><svg width="100%" height="100%" viewBox="0 0 19 21" version="1.1" xmlns="http://www.w3.org/2000/svg" xmlns:xlink="http://www.w3.org/1999/xlink" xml:space="preserve" xmlns:serif="http://www.serif.com/" style="fill-rule:evenodd;clip-rule:evenodd;stroke-linejoin:round;stroke-miterlimit:2;"><path d="M2.132,10.5c1.496,2.674 4.275,4.315 7.368,4.315c3.092,0 5.872,-1.641 7.367,-4.315c-1.495,-2.674 -4.275,-4.315 -7.367,-4.315c-3.093,0 -5.872,1.641 -7.368,4.315m7.368,6.32c-4.032,0 -7.633,-2.254 -9.399,-5.881c-0.135,-0.277 -0.135,-0.601 0,-0.878c1.766,-3.627 5.367,-5.881 9.399,-5.881c4.031,0 7.633,2.254 9.399,5.881c0.135,0.277 0.135,0.601 0,0.878c-1.766,3.627 -5.368,5.881 -9.399,5.881" style="fill:#f00;fill-rule:nonzero;"/><path d="M9.5,8.896c-0.884,0 -1.604,0.72 -1.604,1.604c0,0.884 0.72,1.604 1.604,1.604c0.884,0 1.604,-0.72 1.604,-1.604c0,-0.884 -0.72,-1.604 -1.604,-1.604m0,5.212c-1.99,0 -3.608,-1.619 -3.608,-3.608c0,-1.989 1.618,-3.608 3.608,-3.608c1.989,0 3.608,1.619 3.608,3.608c0,1.989 -1.619,3.608 -3.608,3.608" style="fill:#f00;fill-rule:nonzero;"/></svg>