<?xml version="1.0" encoding="UTF-8" standalone="no"?>
<!DOCTYPE svg PUBLIC "-//W3C//DTD SVG 1.1//EN" "http://www.w3.org/Graphics/SVG/1.1/DTD/svg11.dtd">
<svg width="100%" height="100%" viewBox="0 0 512 512" version="1.1" xmlns="http://www.w3.org/2000/svg" xmlns:xlink="http://www.w3.org/1999/xlink" xml:space="preserve" xmlns:serif="http://www.serif.com/" style="fill-rule:evenodd;clip-rule:evenodd;stroke-linejoin:round;stroke-miterlimit:2;">
    <g id="Layer-1" serif:id="Layer 1" transform="matrix(1,0,0,1,63.9996,56.1147)">
        <g transform="matrix(1.30396,0,0,1.30396,54.6343,260.739)">
            <path d="M0,81.173L4.431,81.173C16.678,81.174 28.924,81.123 41.171,81.192C50.409,81.244 57.241,87.906 57.378,96.817C57.516,105.774 50.947,112.883 41.717,112.956C16.976,113.151 -7.768,113.061 -32.511,113.063C-36.105,113.064 -39.82,113.505 -43.27,112.767C-51.195,111.073 -56.161,103.292 -55.102,95.237C-54.876,93.512 -54.779,91.758 -54.777,90.018C-54.754,65.645 -54.834,41.271 -54.723,16.899C-54.67,5.162 -43.283,-2.539 -32.8,2.013C-26.5,4.749 -23.089,9.738 -23.044,16.696C-22.963,29.069 -23.011,41.444 -23.006,53.818C-23.005,55.02 -23.006,56.222 -23.006,57.425C-22.44,57.856 -21.874,58.287 -21.308,58.718C-20.7,57.485 -20.364,55.982 -19.445,55.058C7.264,28.213 34.044,1.44 60.775,-25.383C65.441,-30.065 70.764,-32.332 77.377,-30.596C88.338,-27.718 92.933,-14.936 86.229,-5.79C84.836,-3.89 83.083,-2.241 81.408,-0.564C55.264,25.608 29.104,51.765 2.955,77.932C2.121,78.766 1.362,79.675 0,81.173" style="fill:white;fill-rule:nonzero;"/>
        </g>
        <g transform="matrix(1.30396,0,0,1.30396,358.781,288.709)">
            <path d="M0,36.84C0,22.3 -0.099,8.815 0.034,-4.668C0.128,-14.195 7.323,-20.956 16.64,-20.621C24.791,-20.329 31.263,-14.059 31.814,-5.884C31.915,-4.389 31.902,-2.885 31.903,-1.385C31.908,20.745 31.884,42.875 31.933,65.006C31.94,67.988 32.168,70.987 32.536,73.949C33.936,85.199 25.337,93.715 14.08,92.222C11.37,91.862 8.619,91.653 5.885,91.648C-16.99,91.602 -39.866,91.685 -62.742,91.591C-73.861,91.545 -81.069,83.332 -79.441,72.903C-78.263,65.365 -71.902,59.828 -63.984,59.758C-51.984,59.653 -39.983,59.726 -27.983,59.724C-26.615,59.723 -25.247,59.723 -22.86,59.723C-24.315,58.152 -25.218,57.11 -26.191,56.137C-52.889,29.441 -79.575,2.732 -106.317,-23.919C-110.657,-28.245 -113.224,-33.149 -112.077,-39.366C-109.78,-51.818 -95.141,-56.875 -85.615,-48.515C-82.895,-46.128 -80.428,-43.452 -77.866,-40.888C-53.039,-16.033 -28.218,8.826 -3.389,33.679C-2.532,34.538 -1.615,35.337 0,36.84" style="fill:white;fill-rule:nonzero;"/>
        </g>
        <g transform="matrix(1.30396,0,0,1.30396,54.4423,138.439)">
            <path d="M0,-81.405C1.736,-79.591 2.657,-78.591 3.617,-77.631C30.123,-51.112 56.612,-24.576 83.165,1.895C87.185,5.901 89.794,10.399 89.158,16.193C88.444,22.708 84.995,27.388 78.8,29.685C72.454,32.039 66.671,30.682 61.869,26.008C54.347,18.686 46.99,11.194 39.568,3.769C19.864,-15.941 0.163,-35.656 -19.545,-55.362C-20.393,-56.21 -21.305,-56.995 -22.832,-58.403C-22.832,-48.915 -22.764,-40.234 -22.855,-31.556C-22.922,-25.093 -25.982,-20.3 -31.745,-17.467C-37.366,-14.704 -42.947,-15.214 -48.047,-18.829C-52.65,-22.092 -54.689,-26.703 -54.668,-32.376C-54.597,-52.001 -54.621,-71.625 -54.621,-91.25C-54.621,-94.111 -55.029,-97.019 -54.649,-99.824C-53.581,-107.694 -47.08,-113.418 -39.181,-113.425C-17.564,-113.444 4.054,-113.428 25.669,-113.22C37.036,-113.11 44.491,-102.25 40.669,-91.807C38.426,-85.675 32.782,-81.543 26.021,-81.436C17.694,-81.305 9.364,-81.405 0,-81.405" style="fill:white;fill-rule:nonzero;"/>
        </g>
        <g transform="matrix(1.30396,0,0,1.30396,327.591,137.873)">
            <path d="M0,-80.982C-8.366,-80.982 -16.735,-80.842 -25.097,-81.022C-32.966,-81.192 -39.421,-87.24 -40.348,-94.915C-41.271,-102.551 -36.731,-109.766 -29.341,-112.034C-27.355,-112.643 -25.167,-112.79 -23.07,-112.802C-2.078,-112.924 18.913,-112.981 39.904,-113.04C48.753,-113.065 55.966,-106.059 55.976,-97.143C55.998,-75.772 55.94,-54.399 55.785,-33.028C55.724,-24.669 50.585,-18.604 42.727,-17.089C33.351,-15.282 24.378,-22.147 24.019,-31.735C23.733,-39.349 23.925,-46.981 23.906,-54.606C23.904,-55.436 23.906,-56.267 23.906,-57.098C23.33,-57.535 22.755,-57.971 22.18,-58.407C21.579,-57.17 21.255,-55.656 20.337,-54.735C-6.124,-28.172 -32.68,-1.702 -59.125,24.878C-63.922,29.699 -69.35,32.083 -76.028,30.399C-86.919,27.653 -91.496,14.61 -84.863,5.526C-83.912,4.224 -82.748,3.064 -81.603,1.919C-55.181,-24.509 -28.757,-50.934 -2.285,-77.311C-1.347,-78.245 0.082,-78.685 1.282,-79.355C0.855,-79.897 0.427,-80.44 0,-80.982" style="fill:white;fill-rule:nonzero;"/>
        </g>
    </g>
</svg>
