<?xml version="1.0" encoding="UTF-8" standalone="no"?>
<!DOCTYPE svg PUBLIC "-//W3C//DTD SVG 1.1//EN" "http://www.w3.org/Graphics/SVG/1.1/DTD/svg11.dtd">
<svg width="100%" height="100%" viewBox="0 0 19 21" version="1.1" xmlns="http://www.w3.org/2000/svg" xmlns:xlink="http://www.w3.org/1999/xlink" xml:space="preserve" xmlns:serif="http://www.serif.com/" style="fill-rule:evenodd;clip-rule:evenodd;stroke-linejoin:round;stroke-miterlimit:2;">
    <g transform="matrix(1.03036,0,0,0.914517,-0.0029066,0.987197)">
        <g>
            <g transform="matrix(1.00508,0,0,1,-0.0936666,-8.88178e-16)">
                <path d="M1.987,18.648L16.551,18.648L16.551,2.156L1.987,2.156L1.987,18.648ZM17.497,20.79L1.041,20.79C0.519,20.79 0.096,20.311 0.096,19.719L0.096,1.085C0.096,0.494 0.519,0.014 1.041,0.014L17.497,0.014C18.019,0.014 18.443,0.494 18.443,1.085L18.443,19.719C18.443,20.311 18.019,20.79 17.497,20.79" style="fill:rgb(255,0,0);fill-rule:nonzero;"/>
            </g>
            <path d="M17.497,16.721C17.253,16.721 17.01,16.615 16.825,16.404L13.559,12.673L11.558,14.958C11.203,15.363 10.571,15.364 10.215,14.958L5.214,9.246L1.713,13.244C1.345,13.664 0.747,13.667 0.375,13.251C0.005,12.835 0.002,12.157 0.37,11.737L4.542,6.971C4.897,6.566 5.53,6.566 5.885,6.971L10.887,12.683L12.887,10.398C13.242,9.992 13.875,9.992 14.23,10.398L18.168,14.896C18.536,15.316 18.533,15.994 18.163,16.41C17.978,16.617 17.737,16.721 17.497,16.721" style="fill:rgb(255,0,0);fill-rule:nonzero;"/>
            <path d="M12.827,6.922C12.117,6.922 11.539,6.267 11.539,5.462C11.539,4.658 12.117,4.003 12.827,4.003C13.538,4.003 14.116,4.658 14.116,5.462C14.116,6.267 13.538,6.922 12.827,6.922" style="fill:rgb(255,0,0);fill-rule:nonzero;"/>
        </g>
    </g>
</svg>
