<?xml version="1.0" encoding="UTF-8" standalone="no"?><!DOCTYPE svg PUBLIC "-//W3C//DTD SVG 1.1//EN" "http://www.w3.org/Graphics/SVG/1.1/DTD/svg11.dtd"><svg width="100%" height="100%" viewBox="0 0 792 282" version="1.1" xmlns="http://www.w3.org/2000/svg" xmlns:xlink="http://www.w3.org/1999/xlink" xml:space="preserve" xmlns:serif="http://www.serif.com/" style="fill-rule:evenodd;clip-rule:evenodd;stroke-linecap:round;stroke-linejoin:round;stroke-miterlimit:1.5;"><g><g><g><path d="M105.001,106.207c10.277,-3.921 21.793,1.574 25.714,11.851c3.922,10.278 -1.006,22.047 -11.283,25.969c-10.277,3.921 -21.793,-1.575 -25.714,-11.852c-3.922,-10.277 1.006,-22.047 11.283,-25.968Z" style="fill:#f00;"/><path d="M20.738,160.021l91.479,-34.904" style="fill:none;stroke:#f00;stroke-width:6.84px;"/><path d="M112.217,125.117l92.452,-91.85" style="fill:none;stroke:#f00;stroke-width:6.84px;"/><path d="M112.217,125.117l-79.2,-105.125" style="fill:none;stroke:#f00;stroke-width:6.84px;"/><path d="M144.864,261.191l-32.647,-136.074" style="fill:none;stroke:#f00;stroke-width:6.84px;"/><path d="M2.265,151.751c4.494,-10.039 16.523,-14.296 26.563,-9.802c10.04,4.495 14.878,16.301 10.384,26.341c-4.495,10.04 -16.523,14.297 -26.563,9.803c-10.04,-4.495 -14.878,-16.302 -10.384,-26.342Z" style="fill:#f00;"/><path d="M14.544,11.723c4.494,-10.04 16.523,-14.296 26.562,-9.802c10.04,4.494 14.878,16.301 10.384,26.341c-4.494,10.04 -16.523,14.296 -26.563,9.802c-10.04,-4.494 -14.878,-16.301 -10.383,-26.341Z" style="fill:#f00;"/><path d="M186.196,24.997c4.494,-10.04 16.523,-14.296 26.563,-9.802c10.039,4.494 14.877,16.301 10.383,26.341c-4.494,10.04 -16.523,14.297 -26.563,9.802c-10.04,-4.494 -14.878,-16.301 -10.383,-26.341Z" style="fill:#f00;"/><path d="M126.39,252.922c4.495,-10.04 16.523,-14.297 26.563,-9.802c10.04,4.494 14.878,16.301 10.384,26.341c-4.494,10.04 -16.523,14.296 -26.563,9.802c-10.04,-4.494 -14.878,-16.301 -10.384,-26.341Z" style="fill:#f00;"/></g><g><g><path d="M176.012,95.117c3.001,-6.704 11.034,-9.547 17.739,-6.546c6.704,3.001 9.935,10.886 6.934,17.591c-3.001,6.704 -11.034,9.547 -17.739,6.546c-6.704,-3.001 -9.935,-10.886 -6.934,-17.591Z" style="fill:#f00;"/></g><path d="M221.593,220.406l0,-91.334l23.27,0l0.7,10.498c1.692,-2.508 4.068,-4.768 7.13,-6.78c3.062,-2.012 6.328,-3.441 9.798,-4.287c3.471,-0.845 6.664,-1.268 9.58,-1.268c7.115,0 13.035,1.487 17.759,4.461c4.725,2.975 7.961,6.868 9.711,11.68c1.75,4.811 2.625,9.579 2.625,14.303l0,62.727l-24.671,0l0,-56.778c0,-4.082 -0.7,-7.319 -2.1,-9.711c-1.399,-2.391 -3.164,-3.965 -5.292,-4.724c-2.129,-0.758 -4.214,-1.137 -6.255,-1.137c-3.383,0 -6.562,1.123 -9.536,3.368c-2.975,2.246 -5.06,4.899 -6.255,7.961c-1.196,3.062 -1.794,5.905 -1.794,8.53l0,52.491l-24.67,0Z" style="fill:#f00;fill-rule:nonzero;"/><path d="M351.419,222.155c-5.54,0 -11.023,-0.466 -16.447,-1.399c-5.424,-0.934 -9.594,-1.911 -12.51,-2.931c-2.916,-1.021 -4.957,-1.823 -6.124,-2.406l6.299,-18.459c2.45,1.05 5.162,2.041 8.136,2.974c2.975,0.933 6.109,1.648 9.405,2.144c3.295,0.495 6.692,0.743 10.192,0.743c6.007,0 10.25,-0.641 12.729,-1.924c2.478,-1.283 3.718,-3.383 3.718,-6.299c0,-2.275 -1.123,-4.097 -3.369,-5.468c-2.245,-1.371 -5.365,-2.639 -9.36,-3.806c-3.995,-1.166 -7.509,-2.303 -10.542,-3.412c-3.616,-1.224 -6.882,-2.58 -9.798,-4.068c-2.917,-1.487 -5.41,-3.251 -7.48,-5.292c-2.071,-2.042 -3.675,-4.418 -4.812,-7.13c-1.137,-2.712 -1.706,-5.935 -1.706,-9.667c0,-6.941 1.954,-12.686 5.861,-17.235c3.908,-4.549 8.661,-7.567 14.26,-9.054c5.599,-1.488 10.994,-2.231 16.185,-2.231c6.124,0 11.592,0.335 16.403,1.006c4.812,0.671 9.317,1.647 13.517,2.931l0,19.859c-4.841,-1.575 -9.58,-2.771 -14.217,-3.587c-4.636,-0.817 -9.433,-1.225 -14.391,-1.225c-4.082,0 -7.13,0.437 -9.142,1.312c-2.012,0.875 -3.208,1.881 -3.587,3.018c-0.379,1.138 -0.568,2.202 -0.568,3.194c0,2.157 1.195,3.936 3.587,5.336c2.391,1.4 5.336,2.581 8.835,3.543c3.5,0.963 6.708,1.881 9.624,2.756c6.182,1.983 11.125,4.155 14.828,6.518c3.704,2.362 6.43,5.38 8.18,9.054c1.75,3.675 2.625,7.64 2.625,11.898c0,7.465 -2.1,13.473 -6.299,18.022c-4.199,4.549 -9.463,7.567 -15.791,9.054c-6.328,1.488 -12.408,2.231 -18.241,2.231Z" style="fill:#f00;fill-rule:nonzero;"/><path d="M447.215,222.593c-7.174,0 -13.575,-1.152 -19.203,-3.456c-5.628,-2.304 -10.367,-5.555 -14.216,-9.754c-3.85,-4.2 -6.795,-9.23 -8.836,-15.091c-2.041,-5.862 -3.062,-12.38 -3.062,-19.553c0,-6.882 0.904,-13.24 2.712,-19.072c1.808,-5.832 4.476,-10.877 8.005,-15.135c3.528,-4.257 7.946,-7.596 13.254,-10.017c5.307,-2.42 11.46,-3.63 18.459,-3.63c12.656,0 22.265,3.791 28.826,11.373c6.561,7.582 9.842,18.546 9.842,32.894c0,4.841 -0.117,8.603 -0.35,11.285l-54.94,0c0.7,7.232 2.96,12.525 6.78,15.879c3.82,3.353 9.259,5.03 16.316,5.03c3.732,0 7.727,-0.291 11.985,-0.875c4.258,-0.583 7.844,-1.341 10.761,-2.274l4.636,18.459c-4.491,1.166 -9.331,2.114 -14.522,2.843c-5.191,0.729 -10.673,1.094 -16.447,1.094Zm-20.297,-56.865l31.232,0l0,-2.625c0,-6.415 -1.254,-11.154 -3.762,-14.216c-2.507,-3.062 -6.094,-4.593 -10.76,-4.593c-4.958,0 -8.88,1.823 -11.767,5.468c-2.887,3.645 -4.534,8.967 -4.943,15.966Z" style="fill:#f00;fill-rule:nonzero;"/><path d="M500.23,220.406l0,-74.362c-7.057,-0.758 -10.819,-1.167 -11.285,-1.225l0,-15.747l36.043,0l0,91.334l-24.758,0Z" style="fill:#f00;"/><path d="M498.217,95.117c3.001,-6.704 11.034,-9.547 17.739,-6.546c6.704,3.001 9.935,10.886 6.934,17.591c-3.001,6.704 -11.034,9.547 -17.739,6.546c-6.704,-3.001 -9.935,-10.886 -6.934,-17.591Z" style="fill:#f00;"/><path d="M178.025,220.406l0,-74.362c-7.057,-0.758 -10.819,-1.167 -11.285,-1.225l0,-15.747l36.043,0l0,91.334l-24.758,0Z" style="fill:#f00;"/><path d="M577.304,222.155c-5.132,0 -9.915,-0.875 -14.347,-2.624c-4.433,-1.75 -8.297,-4.506 -11.592,-8.267c-3.295,-3.762 -5.876,-8.589 -7.742,-14.479c-1.867,-5.891 -2.8,-12.948 -2.8,-21.171c0,-8.049 0.992,-15.106 2.975,-21.172c1.982,-6.065 4.68,-11.11 8.092,-15.134c3.412,-4.025 7.392,-7.043 11.941,-9.055c4.55,-2.012 9.361,-3.018 14.435,-3.018c5.483,0 10.061,0.773 13.735,2.318c3.675,1.546 6.445,3.106 8.311,4.681l0,-45.492l24.671,0l0,131.664l-23.271,0l-0.7,-8.049c-2.449,2.566 -4.957,4.549 -7.523,5.949c-2.567,1.4 -5.22,2.391 -7.961,2.974c-2.742,0.584 -5.483,0.875 -8.224,0.875Zm5.949,-19.509c3.908,0 7.203,-0.991 9.886,-2.974c2.683,-1.983 4.549,-4.826 5.599,-8.53c1.05,-3.703 1.574,-7.626 1.574,-11.767l0,-25.982c-1.691,-1.517 -3.689,-2.844 -5.992,-3.981c-2.304,-1.137 -5.206,-1.706 -8.705,-1.706c-2.624,0 -5.059,0.54 -7.305,1.619c-2.245,1.079 -4.199,2.755 -5.861,5.03c-1.663,2.275 -2.96,5.161 -3.893,8.661c-0.934,3.499 -1.4,7.698 -1.4,12.598c0,4.257 0.291,8.063 0.875,11.416c0.583,3.354 1.516,6.183 2.799,8.486c1.283,2.304 2.945,4.068 4.987,5.293c2.041,1.225 4.52,1.837 7.436,1.837Z" style="fill:#f00;fill-rule:nonzero;"/><path d="M685.172,222.593c-7.173,0 -13.574,-1.152 -19.203,-3.456c-5.628,-2.304 -10.366,-5.555 -14.216,-9.754c-3.849,-4.2 -6.794,-9.23 -8.836,-15.091c-2.041,-5.862 -3.062,-12.38 -3.062,-19.553c0,-6.882 0.904,-13.24 2.712,-19.072c1.808,-5.832 4.477,-10.877 8.005,-15.135c3.529,-4.257 7.947,-7.596 13.254,-10.017c5.307,-2.42 11.461,-3.63 18.459,-3.63c12.656,0 22.265,3.791 28.826,11.373c6.562,7.582 9.842,18.546 9.842,32.894c0,4.841 -0.116,8.603 -0.35,11.285l-54.94,0c0.7,7.232 2.96,12.525 6.78,15.879c3.82,3.353 9.259,5.03 16.316,5.03c3.733,0 7.728,-0.291 11.985,-0.875c4.258,-0.583 7.845,-1.341 10.761,-2.274l4.637,18.459c-4.491,1.166 -9.332,2.114 -14.523,2.843c-5.19,0.729 -10.673,1.094 -16.447,1.094Zm-20.296,-56.865l31.232,0l0,-2.625c0,-6.415 -1.254,-11.154 -3.762,-14.216c-2.508,-3.062 -6.095,-4.593 -10.761,-4.593c-4.957,0 -8.879,1.823 -11.766,5.468c-2.887,3.645 -4.535,8.967 -4.943,15.966Z" style="fill:#f00;fill-rule:nonzero;"/><path d="M735.563,220.406l0,-91.334l23.271,0l0.7,16.447c2.916,-5.832 6.445,-10.221 10.586,-13.166c4.141,-2.946 8.69,-4.418 13.647,-4.418c1.808,0 3.456,0.131 4.943,0.393c1.487,0.263 2.522,0.511 3.106,0.744l0,22.571c-0.933,-0.233 -2.246,-0.452 -3.937,-0.656c-1.691,-0.204 -3.558,-0.306 -5.599,-0.306c-5.132,0 -9.536,1.516 -13.21,4.549c-3.675,3.033 -6.066,6.372 -7.174,10.017c-1.108,3.645 -1.662,6.809 -1.662,9.492l0,45.667l-24.671,0Z" style="fill:#f00;fill-rule:nonzero;"/></g></g></g></svg>