<?xml version="1.0" encoding="UTF-8" standalone="no"?>
<!DOCTYPE svg PUBLIC "-//W3C//DTD SVG 1.1//EN" "http://www.w3.org/Graphics/SVG/1.1/DTD/svg11.dtd">
<svg width="100%" height="100%" viewBox="0 0 719 282" version="1.1" xmlns="http://www.w3.org/2000/svg" xmlns:xlink="http://www.w3.org/1999/xlink" xml:space="preserve" xmlns:serif="http://www.serif.com/" style="fill-rule:evenodd;clip-rule:evenodd;stroke-linecap:round;stroke-linejoin:round;stroke-miterlimit:1.5;">
    <g id="Artboard1" transform="matrix(0.906686,0,0,1,0,0)">
        <rect x="0" y="0" width="792" height="282" style="fill:none;"/>
        <g transform="matrix(1.10292,0,0,1,2.25276,0)">
            <g>
                <g>
                    <g>
                        <path d="M105.001,106.207C115.278,102.286 126.794,107.781 130.715,118.058C134.637,128.336 129.709,140.105 119.432,144.027C109.155,147.948 97.639,142.452 93.718,132.175C89.796,121.898 94.724,110.128 105.001,106.207Z" style="fill:rgb(255,0,0);"/>
                        <path d="M20.738,160.021L112.217,125.117" style="fill:none;stroke:rgb(255,0,0);stroke-width:6.84px;"/>
                        <path d="M112.217,125.117L204.669,33.267" style="fill:none;stroke:rgb(255,0,0);stroke-width:6.84px;"/>
                        <path d="M112.217,125.117L33.017,19.992" style="fill:none;stroke:rgb(255,0,0);stroke-width:6.84px;"/>
                        <path d="M144.864,261.191L112.217,125.117" style="fill:none;stroke:rgb(255,0,0);stroke-width:6.84px;"/>
                        <path d="M2.265,151.751C6.759,141.712 18.788,137.455 28.828,141.949C38.868,146.444 43.706,158.25 39.212,168.29C34.717,178.33 22.689,182.587 12.649,178.093C2.609,173.598 -2.229,161.791 2.265,151.751Z" style="fill:rgb(255,0,0);"/>
                        <path d="M14.544,11.723C19.038,1.683 31.067,-2.573 41.106,1.921C51.146,6.415 55.984,18.222 51.49,28.262C46.996,38.302 34.967,42.558 24.927,38.064C14.887,33.57 10.049,21.763 14.544,11.723Z" style="fill:rgb(255,0,0);"/>
                        <path d="M186.196,24.997C190.69,14.957 202.719,10.701 212.759,15.195C222.798,19.689 227.636,31.496 223.142,41.536C218.648,51.576 206.619,55.833 196.579,51.338C186.539,46.844 181.701,35.037 186.196,24.997Z" style="fill:rgb(255,0,0);"/>
                        <path d="M126.39,252.922C130.885,242.882 142.913,238.625 152.953,243.12C162.993,247.614 167.831,259.421 163.337,269.461C158.843,279.501 146.814,283.757 136.774,279.263C126.734,274.769 121.896,262.962 126.39,252.922Z" style="fill:rgb(255,0,0);"/>
                    </g>
                    <g>
                        <g>
                            <path d="M176.012,95.117C179.013,88.413 187.046,85.57 193.751,88.571C200.455,91.572 203.686,99.457 200.685,106.162C197.684,112.866 189.651,115.709 182.946,112.708C176.242,109.707 173.011,101.822 176.012,95.117Z" style="fill:rgb(255,0,0);"/>
                        </g>
                        <path d="M221.593,220.406L221.593,129.072L244.863,129.072L245.563,139.57C247.255,137.062 249.631,134.802 252.693,132.79C255.755,130.778 259.021,129.349 262.491,128.503C265.962,127.658 269.155,127.235 272.071,127.235C279.186,127.235 285.106,128.722 289.83,131.696C294.555,134.671 297.791,138.564 299.541,143.376C301.291,148.187 302.166,152.955 302.166,157.679L302.166,220.406L277.495,220.406L277.495,163.628C277.495,159.546 276.795,156.309 275.395,153.917C273.996,151.526 272.231,149.952 270.103,149.193C267.974,148.435 265.889,148.056 263.848,148.056C260.465,148.056 257.286,149.179 254.312,151.424C251.337,153.67 249.252,156.323 248.057,159.385C246.861,162.447 246.263,165.29 246.263,167.915L246.263,220.406L221.593,220.406Z" style="fill:rgb(255,0,0);fill-rule:nonzero;"/>
                        <path d="M351.419,222.155C345.879,222.155 340.396,221.689 334.972,220.756C329.548,219.822 325.378,218.845 322.462,217.825C319.546,216.804 317.505,216.002 316.338,215.419L322.637,196.96C325.087,198.01 327.799,199.001 330.773,199.934C333.748,200.867 336.882,201.582 340.178,202.078C343.473,202.573 346.87,202.821 350.37,202.821C356.377,202.821 360.62,202.18 363.099,200.897C365.577,199.614 366.817,197.514 366.817,194.598C366.817,192.323 365.694,190.501 363.448,189.13C361.203,187.759 358.083,186.491 354.088,185.324C350.093,184.158 346.579,183.021 343.546,181.912C339.93,180.688 336.664,179.332 333.748,177.844C330.831,176.357 328.338,174.593 326.268,172.552C324.197,170.51 322.593,168.134 321.456,165.422C320.319,162.71 319.75,159.487 319.75,155.755C319.75,148.814 321.704,143.069 325.611,138.52C329.519,133.971 334.272,130.953 339.871,129.466C345.47,127.978 350.865,127.235 356.056,127.235C362.18,127.235 367.648,127.57 372.459,128.241C377.271,128.912 381.776,129.888 385.976,131.172L385.976,151.031C381.135,149.456 376.396,148.26 371.759,147.444C367.123,146.627 362.326,146.219 357.368,146.219C353.286,146.219 350.238,146.656 348.226,147.531C346.214,148.406 345.018,149.412 344.639,150.549C344.26,151.687 344.071,152.751 344.071,153.743C344.071,155.9 345.266,157.679 347.658,159.079C350.049,160.479 352.994,161.66 356.493,162.622C359.993,163.585 363.201,164.503 366.117,165.378C372.299,167.361 377.242,169.533 380.945,171.896C384.649,174.258 387.375,177.276 389.125,180.95C390.875,184.625 391.75,188.59 391.75,192.848C391.75,200.313 389.65,206.321 385.451,210.87C381.252,215.419 375.988,218.437 369.66,219.924C363.332,221.412 357.252,222.155 351.419,222.155Z" style="fill:rgb(255,0,0);fill-rule:nonzero;"/>
                        <g transform="matrix(1,0,0,1,-78.385,0)">
                            <path d="M500.23,220.406L500.23,146.044C493.173,145.286 489.411,144.877 488.945,144.819L488.945,129.072L524.988,129.072L524.988,220.406L500.23,220.406Z" style="fill:rgb(255,0,0);"/>
                        </g>
                        <g transform="matrix(1,0,0,1,-78.385,0)">
                            <path d="M498.217,95.117C501.218,88.413 509.251,85.57 515.956,88.571C522.66,91.572 525.891,99.457 522.89,106.162C519.889,112.866 511.856,115.709 505.151,112.708C498.447,109.707 495.216,101.822 498.217,95.117Z" style="fill:rgb(255,0,0);"/>
                        </g>
                        <path d="M178.025,220.406L178.025,146.044C170.968,145.286 167.206,144.877 166.74,144.819L166.74,129.072L202.783,129.072L202.783,220.406L178.025,220.406Z" style="fill:rgb(255,0,0);"/>
                        <g transform="matrix(1,0,0,1,-78.385,0)">
                            <path d="M577.304,222.155C572.172,222.155 567.389,221.28 562.957,219.531C558.524,217.781 554.66,215.025 551.365,211.264C548.07,207.502 545.489,202.675 543.623,196.785C541.756,190.894 540.823,183.837 540.823,175.614C540.823,167.565 541.815,160.508 543.798,154.442C545.78,148.377 548.478,143.332 551.89,139.308C555.302,135.283 559.282,132.265 563.831,130.253C568.381,128.241 573.192,127.235 578.266,127.235C583.749,127.235 588.327,128.008 592.001,129.553C595.676,131.099 598.446,132.659 600.312,134.234L600.312,88.742L624.983,88.742L624.983,220.406L601.712,220.406L601.012,212.357C598.563,214.923 596.055,216.906 593.489,218.306C590.922,219.706 588.269,220.697 585.528,221.28C582.786,221.864 580.045,222.155 577.304,222.155ZM583.253,202.646C587.161,202.646 590.456,201.655 593.139,199.672C595.822,197.689 597.688,194.846 598.738,191.142C599.788,187.439 600.312,183.516 600.312,179.375L600.312,153.393C598.621,151.876 596.623,150.549 594.32,149.412C592.016,148.275 589.114,147.706 585.615,147.706C582.991,147.706 580.556,148.246 578.31,149.325C576.065,150.404 574.111,152.08 572.449,154.355C570.786,156.63 569.489,159.516 568.556,163.016C567.622,166.515 567.156,170.714 567.156,175.614C567.156,179.871 567.447,183.677 568.031,187.03C568.614,190.384 569.547,193.213 570.83,195.516C572.113,197.82 573.775,199.584 575.817,200.809C577.858,202.034 580.337,202.646 583.253,202.646Z" style="fill:rgb(255,0,0);fill-rule:nonzero;"/>
                        </g>
                        <g transform="matrix(1,0,0,1,-78.385,0)">
                            <path d="M685.172,222.593C677.999,222.593 671.598,221.441 665.969,219.137C660.341,216.833 655.603,213.582 651.753,209.383C647.904,205.183 644.959,200.153 642.917,194.292C640.876,188.43 639.855,181.912 639.855,174.739C639.855,167.857 640.759,161.499 642.567,155.667C644.375,149.835 647.044,144.79 650.572,140.532C654.101,136.275 658.519,132.936 663.826,130.515C669.133,128.095 675.287,126.885 682.285,126.885C694.941,126.885 704.55,130.676 711.111,138.258C717.673,145.84 720.953,156.804 720.953,171.152C720.953,175.993 720.837,179.755 720.603,182.437L665.663,182.437C666.363,189.669 668.623,194.962 672.443,198.316C676.263,201.669 681.702,203.346 688.759,203.346C692.492,203.346 696.487,203.055 700.744,202.471C705.002,201.888 708.589,201.13 711.505,200.197L716.142,218.656C711.651,219.822 706.81,220.77 701.619,221.499C696.429,222.228 690.946,222.593 685.172,222.593ZM664.876,165.728L696.108,165.728L696.108,163.103C696.108,156.688 694.854,151.949 692.346,148.887C689.838,145.825 686.251,144.294 681.585,144.294C676.628,144.294 672.706,146.117 669.819,149.762C666.932,153.407 665.284,158.729 664.876,165.728Z" style="fill:rgb(255,0,0);fill-rule:nonzero;"/>
                        </g>
                        <g transform="matrix(1,0,0,1,-78.385,0)">
                            <path d="M735.563,220.406L735.563,129.072L758.834,129.072L759.534,145.519C762.45,139.687 765.979,135.298 770.12,132.353C774.261,129.407 778.81,127.935 783.767,127.935C785.575,127.935 787.223,128.066 788.71,128.328C790.197,128.591 791.232,128.839 791.816,129.072L791.816,151.643C790.883,151.41 789.57,151.191 787.879,150.987C786.188,150.783 784.321,150.681 782.28,150.681C777.148,150.681 772.744,152.197 769.07,155.23C765.395,158.263 763.004,161.602 761.896,165.247C760.788,168.892 760.234,172.056 760.234,174.739L760.234,220.406L735.563,220.406Z" style="fill:rgb(255,0,0);fill-rule:nonzero;"/>
                        </g>
                    </g>
                </g>
            </g>
        </g>
    </g>
</svg>
