<?xml version="1.0" encoding="UTF-8" standalone="no"?><!DOCTYPE svg PUBLIC "-//W3C//DTD SVG 1.1//EN" "http://www.w3.org/Graphics/SVG/1.1/DTD/svg11.dtd"><svg width="100%" height="100%" viewBox="0 0 800 800" version="1.1" xmlns="http://www.w3.org/2000/svg" xmlns:xlink="http://www.w3.org/1999/xlink" xml:space="preserve" xmlns:serif="http://www.serif.com/" style="fill-rule:evenodd;clip-rule:evenodd;stroke-linejoin:round;stroke-miterlimit:2;"><g><path d="M342.499,166.482c7.248,7.399 15.81,13.171 25.713,17.357c9.888,4.184 20.419,6.277 31.579,6.277c11.147,0 21.596,-2.093 31.36,-6.277c9.753,-4.186 18.327,-9.958 25.714,-17.357c7.383,-7.372 13.169,-15.947 17.355,-25.712c4.185,-9.752 6.278,-20.215 6.278,-31.361c0,-11.147 -2.093,-21.61 -6.278,-31.36c-4.186,-9.752 -9.972,-18.328 -17.355,-25.725c-7.387,-7.374 -15.961,-13.171 -25.714,-17.343c-9.764,-4.186 -20.213,-6.278 -31.36,-6.278c-11.16,0 -21.691,2.092 -31.579,6.278c-9.903,4.172 -18.465,9.969 -25.713,17.343c-7.248,7.397 -13.034,15.973 -17.355,25.725c-4.323,9.75 -6.483,20.213 -6.483,31.36c0,11.146 2.16,21.609 6.483,31.361c4.321,9.765 10.107,18.34 17.355,25.712Zm198.313,227.849c-9.381,0 -17.954,3.436 -24.548,9.106l0,-0.542c0,-20.81 -16.871,-37.68 -37.68,-37.68c-10.109,0 -19.279,3.987 -26.046,10.464c-3.775,-16.824 -18.792,-29.399 -36.755,-29.399c-13.109,0 -24.649,6.699 -31.399,16.855l0,-103.789c0,-20.81 -16.871,-37.68 -37.68,-37.68c-20.812,0 -37.68,16.87 -37.68,37.68l0,200.007l-0.005,0l0,19.532c0,3.309 -2.751,5.994 -6.06,5.994c-3.311,0 -6.214,-2.685 -6.214,-5.994l0,-66.151c-0.049,-20.768 -16.896,-37.589 -37.676,-37.589c-20.812,0 -37.68,16.87 -37.68,37.68l0,115.556c-0.12,2.666 -0.002,5.343 -0.002,8.039c0,47.061 18.105,89.848 47.977,121.715l261.216,0c27.728,-29.627 45.454,-68.69 47.809,-111.855c0.175,-1.466 0.276,-9.836 0.276,-9.836l0,-0.048l0,-107.811c0,-20.809 -17.043,-34.254 -37.853,-34.254Zm-289.074,356.579l-0.063,-55.825c-0.01,-11.249 9.101,-20.343 20.35,-20.352l255.916,0c11.247,-0.008 20.374,9.103 20.383,20.352l0.002,55.827c0.008,11.247 -9.04,20.374 -20.289,20.383l-255.916,0.002c-11.247,0.008 -20.372,-9.14 -20.383,-20.387" style="fill:#f00;fill-rule:nonzero;"/></g></svg>