<?xml version="1.0" encoding="UTF-8" standalone="no"?>
<!DOCTYPE svg PUBLIC "-//W3C//DTD SVG 1.1//EN" "http://www.w3.org/Graphics/SVG/1.1/DTD/svg11.dtd">
<svg width="100%" height="100%" viewBox="0 0 3000 3001" version="1.1" xmlns="http://www.w3.org/2000/svg" xmlns:xlink="http://www.w3.org/1999/xlink" xml:space="preserve" xmlns:serif="http://www.serif.com/" style="fill-rule:evenodd;clip-rule:evenodd;stroke-linejoin:round;stroke-miterlimit:2;">
    <g transform="matrix(1,0,0,1,-500.3,-500)">
        <g>
            <g transform="matrix(5.29473e-17,-0.864696,1.2768,7.81816e-17,-1316.65,4330.5)">
                <path d="M960.455,2862.49L960.455,2332.75L2570.07,2332.75L2570.07,1954.3C2570.07,1935.29 2586.97,1918.16 2612.9,1910.88C2638.83,1903.61 2668.68,1907.63 2688.52,1921.07C2930.5,2084.95 3472.7,2452.14 3638.44,2564.39C3651.45,2573.2 3658.76,2585.16 3658.76,2597.62C3658.76,2610.08 3651.45,2622.03 3638.44,2630.85C3472.7,2743.09 2930.5,3110.29 2688.52,3274.16C2668.68,3287.61 2638.83,3291.62 2612.9,3284.35C2586.97,3277.08 2570.07,3259.94 2570.07,3240.94L2570.07,2862.49L960.455,2862.49Z" style="fill:rgb(68,68,68);"/>
            </g>
            <g transform="matrix(1.10157,0,0,1.29947,-355.448,-253.249)">
                <path d="M3499.7,625.83C3499.7,600.329 3475.31,579.657 3445.23,579.657C3096.48,579.657 1180.07,579.657 831.315,579.657C801.233,579.657 776.847,600.329 776.847,625.83C776.847,696.648 776.847,831.301 776.847,902.119C776.847,927.62 801.233,948.292 831.315,948.292C1180.07,948.292 3096.48,948.292 3445.23,948.292C3475.31,948.292 3499.7,927.62 3499.7,902.119C3499.7,831.301 3499.7,696.648 3499.7,625.83Z" style="fill:rgb(68,68,68);"/>
            </g>
        </g>
    </g>
</svg>
