<?xml version="1.0" encoding="UTF-8" standalone="no"?><!DOCTYPE svg PUBLIC "-//W3C//DTD SVG 1.1//EN" "http://www.w3.org/Graphics/SVG/1.1/DTD/svg11.dtd"><svg width="100%" height="100%" viewBox="0 0 32 32" version="1.1" xmlns="http://www.w3.org/2000/svg" xmlns:xlink="http://www.w3.org/1999/xlink" xml:space="preserve" xmlns:serif="http://www.serif.com/" style="fill-rule:evenodd;clip-rule:evenodd;stroke-linejoin:round;stroke-miterlimit:2;"><rect id="Artboard2" x="0" y="0" width="32" height="32" style="fill:none;"/><rect id="Artboard1" x="0" y="0" width="32" height="19.799" style="fill:none;"/><g><path d="M32,15.999c0,-5.418 -4.391,-9.809 -9.808,-9.809l-12.384,0.001c-5.417,0 -9.808,4.391 -9.808,9.808l0,0.003c0,5.417 4.391,9.808 9.808,9.808l12.384,0c5.417,0 9.808,-4.391 9.808,-9.808l0,-0.003Z" style="fill:#f00;"/><g><path d="M19.33,22.732c-0.517,0 -0.941,-0.419 -0.941,-0.935l0,-11.594c0,-0.516 0.424,-0.935 0.941,-0.935c0.516,0 0.941,0.419 0.941,0.935l0,11.594c0,0.515 -0.425,0.934 -0.941,0.934" style="fill:#fff;fill-rule:nonzero;stroke:#fff;stroke-width:1px;"/><path d="M12.98,22.732c-0.516,0 -0.94,-0.419 -0.94,-0.935l0,-11.594c0,-0.516 0.424,-0.935 0.94,-0.935c0.517,0 0.941,0.419 0.941,0.935l0,11.594c0,0.515 -0.424,0.934 -0.941,0.934" style="fill:#fff;fill-rule:nonzero;stroke:#fff;stroke-width:1px;"/></g></g></svg>