<?xml version="1.0" encoding="UTF-8" standalone="no"?>
<!DOCTYPE svg PUBLIC "-//W3C//DTD SVG 1.1//EN" "http://www.w3.org/Graphics/SVG/1.1/DTD/svg11.dtd">
<svg width="100%" height="100%" viewBox="0 0 19 25" version="1.1" xmlns="http://www.w3.org/2000/svg" xmlns:xlink="http://www.w3.org/1999/xlink" xml:space="preserve" xmlns:serif="http://www.serif.com/" style="fill-rule:evenodd;clip-rule:evenodd;stroke-linejoin:round;stroke-miterlimit:2;">
    <g transform="matrix(0.47339,0,0,0.47339,-10.5755,-7.62288)">
        <g transform="matrix(2.11242,0,0,2.11242,22.3399,16.1027)">
            <path d="M18.922,19.837L18.922,21.671C18.922,21.943 18.702,22.163 18.43,22.163L0.57,22.163C0.298,22.163 0.078,21.943 0.078,21.671L0.078,19.837C0.078,16.021 3.107,12.923 6.821,12.923L12.179,12.923C15.893,12.923 18.922,16.021 18.922,19.837ZM2.877,19.345C2.877,19.345 16.124,19.345 16.124,19.345C15.887,17.321 14.211,15.742 12.179,15.742L6.821,15.742C4.789,15.742 3.113,17.321 2.877,19.345Z" style="fill:rgb(255,0,0);"/>
        </g>
        <g transform="matrix(2.11242,0,0,2.11242,22.3399,16.1027)">
            <path d="M14.457,7.323C14.457,10.128 12.229,12.402 9.5,12.402C6.77,12.402 4.543,10.128 4.543,7.323C4.543,4.519 6.77,2.245 9.5,2.245C12.229,2.245 14.457,4.519 14.457,7.323ZM7.313,7.323C7.313,8.566 8.29,9.584 9.5,9.584C10.709,9.584 11.687,8.566 11.687,7.323C11.687,6.081 10.709,5.063 9.5,5.063C8.29,5.063 7.313,6.081 7.313,7.323Z" style="fill:rgb(255,0,0);"/>
        </g>
    </g>
</svg>
