<?xml version="1.0" encoding="UTF-8" standalone="no"?><!DOCTYPE svg PUBLIC "-//W3C//DTD SVG 1.1//EN" "http://www.w3.org/Graphics/SVG/1.1/DTD/svg11.dtd"><svg width="100%" height="100%" viewBox="0 0 85 85" version="1.1" xmlns="http://www.w3.org/2000/svg" xmlns:xlink="http://www.w3.org/1999/xlink" xml:space="preserve" xmlns:serif="http://www.serif.com/" style="fill-rule:evenodd;clip-rule:evenodd;stroke-linejoin:round;stroke-miterlimit:2;"><g><g><path d="M26.354,58.563c0,-5.533 4.501,-10.034 10.034,-10.034l12.041,0c5.53,0 10.034,4.501 10.034,10.034l-32.109,0Zm36.122,0c0,-7.745 -6.303,-14.048 -14.047,-14.048l-12.041,0c-7.746,0 -14.048,6.303 -14.048,14.048l0,4.013l40.136,0l0,-4.013Z" style="fill:#f00;fill-rule:nonzero;"/><path d="M36.388,32.474c0,-3.319 2.699,-6.02 6.02,-6.02c3.319,0 6.021,2.701 6.021,6.02c0,3.319 -2.702,6.021 -6.021,6.021c-3.321,0 -6.02,-2.702 -6.02,-6.021Zm16.054,0c0,-5.533 -4.503,-10.034 -10.034,-10.034c-5.533,0 -10.034,4.501 -10.034,10.034c0,5.533 4.501,10.034 10.034,10.034c5.531,0 10.034,-4.501 10.034,-10.034Z" style="fill:#f00;fill-rule:nonzero;"/></g><path d="M42.545,0.141l0.137,0.001l0.137,0.001l0.136,0.002l0.137,0.002l0.136,0.002l0.137,0.003l0.136,0.003l0.136,0.004l0.136,0.004l0.136,0.004l0.136,0.005l0.136,0.006l0.135,0.005l0.136,0.007l0.135,0.006l0.135,0.007l0.135,0.008l0.135,0.008l0.135,0.008l0.135,0.009l0.135,0.009l0.134,0.01l0.135,0.01l0.134,0.01l0.135,0.011l0.134,0.011l0.134,0.012l0.134,0.012l0.133,0.013l0.134,0.013l0.133,0.013l0.134,0.014l0.133,0.014l0.133,0.015l0.133,0.015l0.133,0.015l0.133,0.016l0.133,0.016l0.132,0.017l0.132,0.017l0.133,0.017l0.132,0.018l0.132,0.018l0.132,0.019l0.132,0.019l0.131,0.02l0.132,0.02l0.131,0.02l0.131,0.021l0.131,0.021l0.131,0.021l0.131,0.022l0.131,0.023l0.13,0.022l0.131,0.023l0.13,0.024l0.13,0.024l0.13,0.024l0.13,0.025l0.13,0.025l0.129,0.025l0.13,0.026l0.129,0.027l0.129,0.026l0.129,0.027l0.129,0.028l0.129,0.028l0.129,0.028l0.128,0.028l0.128,0.029l0.128,0.03l0.128,0.03l0.128,0.03l0.128,0.03l0.127,0.031l0.128,0.032l0.127,0.031l0.127,0.032l0.127,0.033l0.127,0.033l0.127,0.033l0.126,0.034l0.126,0.034l0.127,0.034l0.126,0.035l0.125,0.035l0.126,0.035l0.126,0.036l0.125,0.037l0.125,0.036l0.125,0.037l0.125,0.038l0.125,0.038l0.125,0.038l0.124,0.038l0.124,0.039l0.124,0.039l0.124,0.04l0.124,0.04l0.124,0.04l0.123,0.041l0.123,0.041l0.123,0.042l0.123,0.042l0.123,0.042l0.123,0.042l0.122,0.043l0.122,0.044l0.122,0.043l0.122,0.044l0.122,0.045l0.122,0.044l0.121,0.046l0.121,0.045l0.121,0.046l0.121,0.046l0.121,0.047l0.12,0.047l0.121,0.047l0.12,0.047l0.12,0.048l0.12,0.049l0.119,0.048l0.12,0.049l0.119,0.05l0.119,0.05l0.119,0.05l0.118,0.05l0.119,0.051l0.118,0.051l0.118,0.052l0.118,0.051l0.118,0.053l0.118,0.052l0.117,0.053l0.117,0.053l0.117,0.054l0.117,0.054l0.117,0.054l0.116,0.055l0.116,0.055l0.116,0.055l0.116,0.056l0.116,0.056l0.115,0.056l0.116,0.057l0.115,0.057l0.115,0.057l0.114,0.058l0.115,0.058l0.114,0.058l0.114,0.059l0.114,0.059l0.114,0.059l0.113,0.06l0.113,0.06l0.113,0.06l0.113,0.061l0.113,0.061l0.112,0.061l0.113,0.062l0.112,0.062l0.111,0.062l0.112,0.063l0.112,0.063l0.111,0.063l0.111,0.064l0.111,0.064l0.11,0.064l0.11,0.065l0.111,0.064l0.11,0.066l0.109,0.065l0.11,0.066l0.109,0.066l0.109,0.067l0.109,0.067l0.109,0.067l0.108,0.067l0.108,0.068l0.108,0.068l0.108,0.069l0.108,0.069l0.107,0.069l0.107,0.069l0.107,0.07l0.107,0.07l0.106,0.07l0.106,0.071l0.106,0.071l0.106,0.071l0.106,0.071l0.105,0.072l0.105,0.072l0.105,0.073l0.105,0.073l0.104,0.073l0.104,0.073l0.104,0.074l0.104,0.074l0.103,0.074l0.104,0.075l0.103,0.075l0.102,0.075l0.103,0.076l0.102,0.075l0.102,0.077l0.102,0.076l0.102,0.077l0.101,0.077l0.101,0.077l0.101,0.078l0.101,0.078l0.1,0.078l0.1,0.078l0.1,0.079l0.1,0.079l0.099,0.08l0.1,0.079l0.099,0.08l0.098,0.08l0.099,0.081l0.098,0.081l0.098,0.081l0.098,0.081l0.097,0.082l0.097,0.082l0.097,0.082l0.097,0.083l0.097,0.083l0.096,0.083l0.096,0.083l0.096,0.084l0.095,0.084l0.095,0.084l0.095,0.085l0.095,0.084l0.094,0.085l0.095,0.086l0.094,0.085l0.093,0.086l0.094,0.087l0.093,0.086l0.093,0.087l0.092,0.087l0.093,0.087l0.092,0.088l0.092,0.088l0.091,0.088l0.092,0.088l0.091,0.089l0.091,0.089l0.09,0.089l0.09,0.089l0.09,0.09l0.09,0.09l0.09,0.09l0.089,0.091l0.089,0.091l0.088,0.091l0.089,0.091l0.088,0.092l0.088,0.091l0.087,0.093l0.088,0.092l0.087,0.093l0.086,0.093l0.087,0.093l0.086,0.093l0.086,0.094l0.086,0.094l0.085,0.094l0.085,0.094l0.085,0.095l0.084,0.095l0.085,0.095l0.084,0.096l0.083,0.095l0.084,0.096l0.083,0.097l0.083,0.096l0.082,0.097l0.082,0.097l0.082,0.097l0.082,0.098l0.081,0.097l0.082,0.098l0.08,0.099l0.081,0.098l0.08,0.099l0.08,0.099l0.08,0.099l0.079,0.099l0.079,0.1l0.079,0.1l0.079,0.1l0.078,0.1l0.078,0.101l0.077,0.101l0.078,0.101l0.077,0.102l0.076,0.101l0.077,0.102l0.076,0.102l0.076,0.102l0.075,0.103l0.075,0.103l0.075,0.103l0.075,0.103l0.074,0.103l0.074,0.104l0.074,0.104l0.073,0.104l0.074,0.105l0.072,0.104l0.073,0.105l0.072,0.105l0.072,0.106l0.071,0.105l0.072,0.106l0.071,0.106l0.07,0.106l0.071,0.107l0.07,0.106l0.069,0.107l0.07,0.107l0.069,0.108l0.069,0.107l0.068,0.108l0.068,0.108l0.068,0.108l0.067,0.109l0.068,0.108l0.066,0.109l0.067,0.109l0.066,0.11l0.066,0.109l0.066,0.11l0.065,0.11l0.065,0.11l0.064,0.11l0.065,0.111l0.064,0.111l0.063,0.111l0.064,0.111l0.063,0.111l0.062,0.112l0.063,0.112l0.062,0.112l0.061,0.112l0.062,0.112l0.061,0.113l0.06,0.113l0.061,0.113l0.06,0.113l0.059,0.114l0.06,0.113l0.059,0.114l0.058,0.114l0.059,0.115l0.058,0.114l0.057,0.115l0.058,0.115l0.057,0.115l0.056,0.115l0.057,0.115l0.056,0.116l0.055,0.116l0.056,0.116l0.055,0.116l0.054,0.117l0.054,0.116l0.054,0.117l0.054,0.117l0.053,0.117l0.053,0.118l0.053,0.117l0.052,0.118l0.052,0.118l0.051,0.118l0.051,0.118l0.051,0.119l0.051,0.119l0.05,0.118l0.049,0.12l0.05,0.119l0.049,0.119l0.049,0.12l0.048,0.12l0.048,0.12l0.048,0.12l0.047,0.12l0.047,0.12l0.046,0.121l0.046,0.121l0.046,0.121l0.046,0.121l0.045,0.122l0.045,0.121l0.044,0.122l0.044,0.122l0.044,0.122l0.043,0.122l0.043,0.123l0.043,0.122l0.042,0.123l0.042,0.123l0.041,0.123l0.041,0.123l0.041,0.124l0.04,0.123l0.04,0.124l0.04,0.124l0.039,0.124l0.039,0.124l0.039,0.125l0.038,0.124l0.038,0.125l0.037,0.125l0.037,0.125l0.037,0.125l0.036,0.126l0.036,0.125l0.035,0.126l0.036,0.126l0.034,0.126l0.035,0.126l0.034,0.126l0.033,0.127l0.034,0.126l0.032,0.127l0.033,0.127l0.032,0.127l0.032,0.127l0.031,0.128l0.031,0.127l0.031,0.128l0.03,0.128l0.03,0.128l0.029,0.128l0.029,0.128l0.029,0.129l0.028,0.128l0.028,0.129l0.027,0.129l0.027,0.129l0.027,0.129l0.026,0.129l0.026,0.13l0.025,0.13l0.026,0.129l0.024,0.13l0.025,0.13l0.023,0.13l0.024,0.131l0.023,0.13l0.023,0.131l0.022,0.13l0.022,0.131l0.022,0.131l0.021,0.131l0.02,0.131l0.021,0.132l0.02,0.131l0.019,0.132l0.019,0.132l0.019,0.131l0.018,0.132l0.018,0.133l0.017,0.132l0.018,0.132l0.016,0.133l0.016,0.132l0.016,0.133l0.016,0.133l0.015,0.133l0.014,0.133l0.015,0.134l0.013,0.133l0.014,0.133l0.013,0.134l0.012,0.134l0.012,0.134l0.012,0.134l0.011,0.134l0.011,0.134l0.011,0.134l0.01,0.135l0.009,0.134l0.009,0.135l0.009,0.135l0.009,0.135l0.007,0.135l0.008,0.135l0.007,0.135l0.007,0.136l0.006,0.135l0.006,0.136l0.005,0.135l0.005,0.136l0.005,0.136l0.004,0.136l0.003,0.136l0.004,0.137l0.002,0.136l0.003,0.136l0.002,0.137l0.001,0.137l0.001,0.136l0.001,0.137l0,0.137l0,0.137l-0.001,0.137l-0.001,0.137l-0.001,0.136l-0.002,0.137l-0.003,0.136l-0.002,0.137l-0.004,0.136l-0.003,0.136l-0.004,0.136l-0.005,0.136l-0.005,0.136l-0.005,0.136l-0.006,0.135l-0.006,0.136l-0.007,0.135l-0.007,0.135l-0.008,0.135l-0.007,0.135l-0.009,0.135l-0.009,0.135l-0.009,0.135l-0.009,0.134l-0.01,0.135l-0.011,0.134l-0.011,0.134l-0.011,0.135l-0.012,0.134l-0.012,0.133l-0.012,0.134l-0.013,0.134l-0.014,0.133l-0.013,0.134l-0.015,0.133l-0.014,0.133l-0.015,0.133l-0.016,0.133l-0.016,0.133l-0.016,0.132l-0.016,0.133l-0.018,0.132l-0.017,0.133l-0.018,0.132l-0.018,0.132l-0.019,0.132l-0.019,0.131l-0.019,0.132l-0.02,0.132l-0.021,0.131l-0.02,0.131l-0.021,0.131l-0.022,0.131l-0.022,0.131l-0.022,0.131l-0.023,0.13l-0.023,0.131l-0.024,0.13l-0.023,0.13l-0.025,0.13l-0.024,0.13l-0.026,0.13l-0.025,0.129l-0.026,0.13l-0.026,0.129l-0.027,0.129l-0.027,0.129l-0.027,0.129l-0.028,0.129l-0.028,0.128l-0.029,0.129l-0.029,0.128l-0.029,0.128l-0.03,0.128l-0.03,0.128l-0.031,0.128l-0.031,0.127l-0.031,0.128l-0.032,0.127l-0.032,0.127l-0.033,0.127l-0.032,0.127l-0.034,0.126l-0.033,0.127l-0.034,0.126l-0.035,0.126l-0.034,0.127l-0.036,0.125l-0.035,0.126l-0.036,0.126l-0.036,0.125l-0.037,0.125l-0.037,0.125l-0.037,0.125l-0.038,0.125l-0.038,0.125l-0.039,0.124l-0.039,0.124l-0.039,0.124l-0.04,0.124l-0.04,0.124l-0.04,0.124l-0.041,0.123l-0.041,0.123l-0.041,0.123l-0.042,0.123l-0.042,0.123l-0.043,0.123l-0.043,0.122l-0.043,0.122l-0.044,0.122l-0.044,0.122l-0.044,0.122l-0.045,0.122l-0.045,0.121l-0.046,0.121l-0.046,0.121l-0.046,0.121l-0.046,0.121l-0.047,0.12l-0.047,0.121l-0.048,0.12l-0.048,0.12l-0.048,0.119l-0.049,0.12l-0.049,0.119l-0.05,0.12l-0.049,0.119l-0.05,0.119l-0.051,0.118l-0.051,0.119l-0.051,0.118l-0.051,0.118l-0.052,0.118l-0.052,0.118l-0.053,0.118l-0.053,0.117l-0.053,0.117l-0.054,0.117l-0.054,0.117l-0.054,0.117l-0.054,0.116l-0.055,0.116l-0.056,0.116l-0.055,0.116l-0.056,0.116l-0.057,0.115l-0.056,0.116l-0.057,0.115l-0.058,0.114l-0.057,0.115l-0.058,0.115l-0.059,0.114l-0.058,0.114l-0.059,0.114l-0.06,0.113l-0.059,0.114l-0.06,0.113l-0.061,0.113l-0.06,0.113l-0.061,0.113l-0.062,0.112l-0.061,0.113l-0.062,0.112l-0.063,0.111l-0.062,0.112l-0.063,0.111l-0.064,0.112l-0.063,0.111l-0.064,0.11l-0.065,0.111l-0.064,0.11l-0.065,0.111l-0.065,0.109l-0.066,0.11l-0.066,0.11l-0.066,0.109l-0.067,0.109l-0.066,0.109l-0.068,0.109l-0.067,0.108l-0.068,0.108l-0.068,0.108l-0.068,0.108l-0.069,0.108l-0.069,0.107l-0.07,0.107l-0.069,0.107l-0.07,0.107l-0.071,0.106l-0.07,0.106l-0.071,0.106l-0.072,0.106l-0.071,0.106l-0.072,0.105l-0.072,0.105l-0.073,0.105l-0.072,0.104l-0.074,0.105l-0.073,0.104l-0.074,0.104l-0.074,0.104l-0.074,0.103l-0.075,0.103l-0.075,0.104l-0.075,0.102l-0.075,0.103l-0.076,0.102l-0.076,0.102l-0.077,0.102l-0.076,0.102l-0.077,0.101l-0.078,0.101l-0.077,0.101l-0.078,0.101l-0.078,0.1l-0.079,0.1l-0.079,0.1l-0.079,0.1l-0.079,0.099l-0.08,0.1l-0.08,0.099l-0.08,0.098l-0.081,0.099l-0.08,0.098l-0.082,0.098l-0.081,0.098l-0.082,0.097l-0.082,0.097l-0.082,0.097l-0.082,0.097l-0.083,0.097l-0.083,0.096l-0.084,0.096l-0.083,0.096l-0.084,0.095l-0.085,0.095l-0.084,0.095l-0.085,0.095l-0.085,0.094l-0.085,0.095l-0.086,0.093l-0.086,0.094l-0.086,0.094l-0.087,0.093l-0.086,0.093l-0.087,0.092l-0.088,0.093l-0.087,0.092l-0.088,0.092l-0.088,0.091l-0.089,0.092l-0.088,0.091l-0.089,0.09l-0.089,0.091l-0.09,0.09l-0.09,0.09l-0.09,0.09l-0.09,0.089l-0.09,0.09l-0.091,0.089l-0.091,0.088l-0.092,0.089l-0.091,0.088l-0.092,0.088l-0.092,0.087l-0.093,0.087l-0.092,0.087l-0.093,0.087l-0.093,0.087l-0.094,0.086l-0.093,0.086l-0.094,0.085l-0.095,0.086l-0.094,0.085l-0.095,0.085l-0.095,0.084l-0.095,0.084l-0.095,0.084l-0.096,0.084l-0.096,0.084l-0.096,0.083l-0.097,0.082l-0.097,0.083l-0.097,0.082l-0.097,0.082l-0.097,0.082l-0.098,0.081l-0.098,0.081l-0.098,0.081l-0.099,0.081l-0.098,0.08l-0.099,0.08l-0.1,0.08l-0.099,0.079l-0.1,0.079l-0.1,0.079l-0.1,0.078l-0.1,0.079l-0.101,0.078l-0.101,0.077l-0.101,0.078l-0.101,0.077l-0.102,0.076l-0.102,0.077l-0.102,0.076l-0.102,0.076l-0.103,0.075l-0.102,0.075l-0.103,0.075l-0.104,0.075l-0.103,0.074l-0.104,0.074l-0.104,0.074l-0.104,0.073l-0.104,0.073l-0.105,0.073l-0.105,0.073l-0.105,0.072l-0.105,0.072l-0.106,0.071l-0.106,0.072l-0.106,0.071l-0.106,0.07l-0.106,0.071l-0.107,0.07l-0.107,0.069l-0.107,0.07l-0.107,0.069l-0.108,0.068l-0.108,0.069l-0.108,0.068l-0.108,0.068l-0.108,0.067l-0.109,0.067l-0.109,0.067l-0.109,0.067l-0.109,0.066l-0.11,0.066l-0.109,0.066l-0.11,0.065l-0.111,0.065l-0.11,0.064l-0.11,0.065l-0.111,0.064l-0.111,0.063l-0.111,0.064l-0.112,0.063l-0.112,0.062l-0.111,0.062l-0.112,0.062l-0.113,0.062l-0.112,0.061l-0.113,0.062l-0.113,0.06l-0.113,0.061l-0.113,0.06l-0.113,0.059l-0.114,0.06l-0.114,0.059l-0.114,0.058l-0.114,0.059l-0.115,0.058l-0.114,0.057l-0.115,0.058l-0.115,0.057l-0.116,0.056l-0.115,0.057l-0.116,0.056l-0.116,0.055l-0.116,0.056l-0.116,0.054l-0.116,0.055l-0.117,0.054l-0.117,0.054l-0.117,0.054l-0.117,0.053l-0.117,0.053l-0.118,0.053l-0.118,0.052l-0.118,0.052l-0.118,0.051l-0.118,0.051l-0.119,0.051l-0.118,0.051l-0.119,0.05l-0.119,0.049l-0.119,0.05l-0.12,0.049l-0.119,0.048l-0.12,0.049l-0.12,0.048l-0.12,0.047l-0.121,0.048l-0.12,0.047l-0.121,0.046l-0.121,0.046l-0.121,0.046l-0.121,0.046l-0.121,0.045l-0.122,0.045l-0.122,0.044l-0.122,0.044l-0.122,0.044l-0.122,0.043l-0.122,0.043l-0.123,0.042l-0.123,0.043l-0.123,0.042l-0.123,0.041l-0.123,0.041l-0.123,0.041l-0.124,0.04l-0.124,0.04l-0.124,0.04l-0.124,0.039l-0.124,0.039l-0.124,0.039l-0.125,0.038l-0.125,0.037l-0.125,0.038l-0.125,0.037l-0.125,0.037l-0.125,0.036l-0.126,0.036l-0.126,0.035l-0.125,0.035l-0.126,0.035l-0.127,0.035l-0.126,0.034l-0.126,0.033l-0.127,0.033l-0.127,0.033l-0.127,0.033l-0.127,0.032l-0.127,0.032l-0.128,0.031l-0.127,0.031l-0.128,0.03l-0.128,0.031l-0.128,0.029l-0.128,0.03l-0.128,0.029l-0.128,0.028l-0.129,0.029l-0.129,0.028l-0.129,0.027l-0.129,0.027l-0.129,0.027l-0.129,0.026l-0.13,0.026l-0.129,0.025l-0.13,0.025l-0.13,0.025l-0.13,0.024l-0.13,0.024l-0.13,0.024l-0.131,0.023l-0.13,0.023l-0.131,0.022l-0.131,0.022l-0.131,0.021l-0.131,0.022l-0.131,0.02l-0.131,0.021l-0.132,0.019l-0.131,0.02l-0.132,0.019l-0.132,0.019l-0.132,0.018l-0.132,0.018l-0.133,0.017l-0.132,0.017l-0.132,0.017l-0.133,0.016l-0.133,0.016l-0.133,0.016l-0.133,0.015l-0.133,0.014l-0.133,0.014l-0.134,0.014l-0.133,0.014l-0.134,0.013l-0.133,0.012l-0.134,0.012l-0.134,0.012l-0.134,0.011l-0.135,0.011l-0.134,0.01l-0.135,0.011l-0.134,0.009l-0.135,0.009l-0.135,0.009l-0.135,0.008l-0.135,0.008l-0.135,0.008l-0.135,0.007l-0.135,0.007l-0.136,0.006l-0.135,0.006l-0.136,0.005l-0.136,0.005l-0.136,0.005l-0.136,0.004l-0.136,0.003l-0.136,0.004l-0.137,0.002l-0.136,0.003l-0.137,0.002l-0.136,0.001l-0.137,0.001l-0.137,0.001l-0.137,0l-0.137,0l-0.137,-0.001l-0.136,-0.001l-0.137,-0.001l-0.137,-0.002l-0.136,-0.003l-0.136,-0.002l-0.137,-0.004l-0.136,-0.003l-0.136,-0.004l-0.136,-0.005l-0.135,-0.005l-0.136,-0.005l-0.136,-0.006l-0.135,-0.006l-0.136,-0.007l-0.135,-0.007l-0.135,-0.008l-0.135,-0.008l-0.135,-0.008l-0.135,-0.009l-0.134,-0.009l-0.135,-0.009l-0.135,-0.011l-0.134,-0.01l-0.134,-0.011l-0.134,-0.011l-0.134,-0.012l-0.134,-0.012l-0.134,-0.012l-0.133,-0.013l-0.134,-0.014l-0.133,-0.014l-0.134,-0.014l-0.133,-0.014l-0.133,-0.015l-0.133,-0.016l-0.132,-0.016l-0.133,-0.016l-0.133,-0.017l-0.132,-0.017l-0.132,-0.017l-0.132,-0.018l-0.132,-0.018l-0.132,-0.019l-0.132,-0.019l-0.132,-0.02l-0.131,-0.019l-0.132,-0.021l-0.131,-0.02l-0.131,-0.022l-0.131,-0.021l-0.131,-0.022l-0.13,-0.022l-0.131,-0.023l-0.13,-0.023l-0.131,-0.024l-0.13,-0.024l-0.13,-0.024l-0.13,-0.025l-0.129,-0.025l-0.13,-0.025l-0.129,-0.026l-0.13,-0.026l-0.129,-0.027l-0.129,-0.027l-0.129,-0.027l-0.128,-0.028l-0.129,-0.029l-0.129,-0.028l-0.128,-0.029l-0.128,-0.03l-0.128,-0.029l-0.128,-0.031l-0.127,-0.03l-0.128,-0.031l-0.127,-0.031l-0.128,-0.032l-0.127,-0.032l-0.127,-0.033l-0.127,-0.033l-0.126,-0.033l-0.127,-0.033l-0.126,-0.034l-0.126,-0.035l-0.126,-0.035l-0.126,-0.035l-0.126,-0.035l-0.125,-0.036l-0.126,-0.036l-0.125,-0.037l-0.125,-0.037l-0.125,-0.038l-0.125,-0.037l-0.124,-0.038l-0.125,-0.039l-0.124,-0.039l-0.124,-0.039l-0.124,-0.04l-0.124,-0.04l-0.123,-0.04l-0.124,-0.041l-0.123,-0.041l-0.123,-0.041l-0.123,-0.042l-0.123,-0.043l-0.122,-0.042l-0.123,-0.043l-0.122,-0.043l-0.122,-0.044l-0.122,-0.044l-0.122,-0.044l-0.121,-0.045l-0.122,-0.045l-0.121,-0.046l-0.121,-0.046l-0.121,-0.046l-0.12,-0.046l-0.121,-0.047l-0.12,-0.048l-0.12,-0.047l-0.12,-0.048l-0.12,-0.049l-0.12,-0.048l-0.119,-0.049l-0.119,-0.05l-0.119,-0.049l-0.119,-0.05l-0.119,-0.051l-0.119,-0.051l-0.118,-0.051l-0.118,-0.051l-0.118,-0.052l-0.118,-0.052l-0.117,-0.053l-0.118,-0.053l-0.117,-0.053l-0.117,-0.054l-0.117,-0.054l-0.116,-0.054l-0.117,-0.055l-0.116,-0.054l-0.116,-0.056l-0.116,-0.055l-0.115,-0.056l-0.116,-0.057l-0.115,-0.056l-0.115,-0.057l-0.115,-0.058l-0.115,-0.057l-0.114,-0.058l-0.115,-0.059l-0.114,-0.058l-0.113,-0.059l-0.114,-0.06l-0.114,-0.059l-0.113,-0.06l-0.113,-0.061l-0.113,-0.06l-0.112,-0.062l-0.113,-0.061l-0.112,-0.062l-0.112,-0.062l-0.112,-0.062l-0.112,-0.062l-0.111,-0.063l-0.111,-0.064l-0.111,-0.063l-0.111,-0.064l-0.111,-0.065l-0.11,-0.064l-0.11,-0.065l-0.11,-0.065l-0.11,-0.066l-0.109,-0.066l-0.11,-0.066l-0.109,-0.067l-0.109,-0.067l-0.108,-0.067l-0.109,-0.067l-0.108,-0.068l-0.108,-0.068l-0.108,-0.069l-0.107,-0.068l-0.108,-0.069l-0.107,-0.07l-0.107,-0.069l-0.106,-0.07l-0.107,-0.071l-0.106,-0.07l-0.106,-0.071l-0.106,-0.072l-0.105,-0.071l-0.106,-0.072l-0.105,-0.072l-0.105,-0.073l-0.104,-0.073l-0.105,-0.073l-0.104,-0.073l-0.104,-0.074l-0.103,-0.074l-0.104,-0.074l-0.103,-0.075l-0.103,-0.075l-0.103,-0.075l-0.103,-0.075l-0.102,-0.076l-0.102,-0.076l-0.102,-0.077l-0.101,-0.076l-0.102,-0.077l-0.101,-0.078l-0.101,-0.077l-0.1,-0.078l-0.101,-0.079l-0.1,-0.078l-0.1,-0.079l-0.1,-0.079l-0.099,-0.079l-0.099,-0.08l-0.099,-0.08l-0.099,-0.08l-0.098,-0.081l-0.099,-0.081l-0.098,-0.081l-0.097,-0.081l-0.098,-0.082l-0.097,-0.082l-0.097,-0.082l-0.097,-0.083l-0.096,-0.082l-0.096,-0.083l-0.096,-0.084l-0.096,-0.084l-0.096,-0.084l-0.095,-0.084l-0.095,-0.084l-0.095,-0.085l-0.094,-0.085l-0.094,-0.086l-0.094,-0.085l-0.094,-0.086l-0.093,-0.086l-0.093,-0.087l-0.093,-0.087l-0.093,-0.087l-0.092,-0.087l-0.092,-0.087l-0.092,-0.088l-0.092,-0.088l-0.091,-0.089l-0.091,-0.088l-0.091,-0.089l-0.091,-0.09l-0.09,-0.089l-0.09,-0.09l-0.09,-0.09l-0.089,-0.09l-0.089,-0.091l-0.089,-0.09l-0.089,-0.091l-0.088,-0.092l-0.088,-0.091l-0.088,-0.092l-0.088,-0.092l-0.087,-0.093l-0.087,-0.092l-0.087,-0.093l-0.086,-0.093l-0.087,-0.094l-0.085,-0.094l-0.086,-0.093l-0.085,-0.095l-0.086,-0.094l-0.084,-0.095l-0.085,-0.095l-0.084,-0.095l-0.084,-0.095l-0.084,-0.096l-0.083,-0.096l-0.083,-0.096l-0.083,-0.097l-0.083,-0.097l-0.082,-0.097l-0.082,-0.097l-0.082,-0.097l-0.081,-0.098l-0.081,-0.098l-0.081,-0.098l-0.081,-0.099l-0.08,-0.098l-0.08,-0.099l-0.079,-0.1l-0.08,-0.099l-0.079,-0.1l-0.079,-0.1l-0.078,-0.1l-0.078,-0.1l-0.078,-0.101l-0.078,-0.101l-0.077,-0.101l-0.077,-0.101l-0.077,-0.102l-0.076,-0.102l-0.076,-0.102l-0.076,-0.102l-0.076,-0.103l-0.075,-0.102l-0.075,-0.104l-0.075,-0.103l-0.074,-0.103l-0.074,-0.104l-0.074,-0.104l-0.073,-0.104l-0.073,-0.105l-0.073,-0.104l-0.072,-0.105l-0.073,-0.105l-0.071,-0.105l-0.072,-0.106l-0.071,-0.106l-0.071,-0.106l-0.071,-0.106l-0.07,-0.106l-0.07,-0.107l-0.07,-0.107l-0.069,-0.107l-0.069,-0.107l-0.069,-0.108l-0.069,-0.108l-0.068,-0.108l-0.067,-0.108l-0.068,-0.108l-0.067,-0.109l-0.067,-0.109l-0.067,-0.109l-0.066,-0.109l-0.066,-0.11l-0.065,-0.11l-0.065,-0.109l-0.065,-0.111l-0.065,-0.11l-0.064,-0.111l-0.064,-0.11l-0.064,-0.111l-0.063,-0.112l-0.063,-0.111l-0.063,-0.112l-0.062,-0.111l-0.062,-0.112l-0.062,-0.113l-0.061,-0.112l-0.061,-0.113l-0.061,-0.113l-0.06,-0.113l-0.06,-0.113l-0.06,-0.114l-0.059,-0.113l-0.059,-0.114l-0.059,-0.114l-0.058,-0.114l-0.058,-0.115l-0.058,-0.115l-0.057,-0.114l-0.057,-0.115l-0.057,-0.116l-0.056,-0.115l-0.056,-0.116l-0.056,-0.116l-0.055,-0.116l-0.055,-0.116l-0.055,-0.116l-0.054,-0.117l-0.054,-0.117l-0.054,-0.117l-0.053,-0.117l-0.053,-0.117l-0.052,-0.118l-0.052,-0.118l-0.052,-0.118l-0.052,-0.118l-0.051,-0.118l-0.051,-0.119l-0.05,-0.118l-0.05,-0.119l-0.05,-0.119l-0.049,-0.12l-0.049,-0.119l-0.049,-0.12l-0.048,-0.119l-0.048,-0.12l-0.048,-0.12l-0.047,-0.121l-0.047,-0.12l-0.047,-0.121l-0.046,-0.121l-0.046,-0.121l-0.045,-0.121l-0.045,-0.121l-0.045,-0.122l-0.045,-0.122l-0.044,-0.122l-0.043,-0.122l-0.044,-0.122l-0.043,-0.122l-0.042,-0.123l-0.042,-0.123l-0.042,-0.123l-0.042,-0.123l-0.041,-0.123l-0.041,-0.123l-0.04,-0.124l-0.04,-0.124l-0.04,-0.124l-0.039,-0.124l-0.039,-0.124l-0.038,-0.124l-0.038,-0.125l-0.038,-0.125l-0.038,-0.125l-0.037,-0.125l-0.036,-0.125l-0.037,-0.125l-0.035,-0.126l-0.036,-0.126l-0.035,-0.125l-0.035,-0.127l-0.034,-0.126l-0.034,-0.126l-0.034,-0.127l-0.033,-0.126l-0.033,-0.127l-0.032,-0.127l-0.033,-0.127l-0.031,-0.127l-0.032,-0.128l-0.031,-0.127l-0.03,-0.128l-0.03,-0.128l-0.03,-0.128l-0.029,-0.128l-0.03,-0.128l-0.028,-0.129l-0.028,-0.128l-0.028,-0.129l-0.028,-0.129l-0.027,-0.129l-0.026,-0.129l-0.027,-0.129l-0.026,-0.13l-0.025,-0.129l-0.025,-0.13l-0.025,-0.13l-0.024,-0.13l-0.024,-0.13l-0.024,-0.13l-0.023,-0.131l-0.022,-0.13l-0.023,-0.131l-0.022,-0.131l-0.021,-0.131l-0.021,-0.131l-0.021,-0.131l-0.02,-0.131l-0.02,-0.132l-0.02,-0.132l-0.019,-0.131l-0.018,-0.132l-0.019,-0.132l-0.018,-0.132l-0.017,-0.133l-0.017,-0.132l-0.017,-0.133l-0.016,-0.132l-0.016,-0.133l-0.015,-0.133l-0.015,-0.133l-0.015,-0.133l-0.014,-0.133l-0.014,-0.134l-0.013,-0.133l-0.013,-0.134l-0.013,-0.134l-0.012,-0.133l-0.012,-0.134l-0.011,-0.135l-0.011,-0.134l-0.01,-0.134l-0.01,-0.135l-0.01,-0.134l-0.009,-0.135l-0.009,-0.135l-0.008,-0.135l-0.008,-0.135l-0.008,-0.135l-0.007,-0.135l-0.006,-0.135l-0.007,-0.136l-0.005,-0.135l-0.006,-0.136l-0.005,-0.136l-0.004,-0.136l-0.004,-0.136l-0.004,-0.136l-0.003,-0.136l-0.003,-0.137l-0.002,-0.136l-0.002,-0.137l-0.002,-0.136l-0.001,-0.137l-0.001,-0.137l0,-0.137l0,-0.137l0.001,-0.137l0.001,-0.136l0.002,-0.137l0.002,-0.137l0.002,-0.136l0.003,-0.136l0.003,-0.137l0.004,-0.136l0.004,-0.136l0.004,-0.136l0.005,-0.136l0.006,-0.135l0.005,-0.136l0.007,-0.135l0.006,-0.136l0.007,-0.135l0.008,-0.135l0.008,-0.135l0.008,-0.135l0.009,-0.135l0.009,-0.135l0.01,-0.134l0.01,-0.135l0.01,-0.134l0.011,-0.134l0.011,-0.134l0.012,-0.134l0.012,-0.134l0.013,-0.134l0.013,-0.134l0.013,-0.133l0.014,-0.133l0.014,-0.134l0.015,-0.133l0.015,-0.133l0.015,-0.133l0.016,-0.133l0.016,-0.132l0.017,-0.133l0.017,-0.132l0.017,-0.132l0.018,-0.133l0.019,-0.132l0.018,-0.131l0.019,-0.132l0.02,-0.132l0.02,-0.131l0.02,-0.132l0.021,-0.131l0.021,-0.131l0.021,-0.131l0.022,-0.131l0.023,-0.13l0.022,-0.131l0.023,-0.13l0.024,-0.131l0.024,-0.13l0.024,-0.13l0.025,-0.13l0.025,-0.129l0.025,-0.13l0.026,-0.13l0.027,-0.129l0.026,-0.129l0.027,-0.129l0.028,-0.129l0.028,-0.129l0.028,-0.128l0.028,-0.129l0.03,-0.128l0.029,-0.128l0.03,-0.128l0.03,-0.128l0.03,-0.128l0.031,-0.127l0.032,-0.128l0.031,-0.127l0.033,-0.127l0.032,-0.127l0.033,-0.127l0.033,-0.126l0.034,-0.127l0.034,-0.126l0.034,-0.126l0.035,-0.126l0.035,-0.126l0.036,-0.126l0.035,-0.125l0.037,-0.126l0.036,-0.125l0.037,-0.125l0.038,-0.125l0.038,-0.125l0.038,-0.124l0.038,-0.125l0.039,-0.124l0.039,-0.124l0.04,-0.124l0.04,-0.124l0.04,-0.123l0.041,-0.124l0.041,-0.123l0.042,-0.123l0.042,-0.123l0.042,-0.123l0.042,-0.122l0.043,-0.123l0.044,-0.122l0.043,-0.122l0.044,-0.122l0.045,-0.122l0.045,-0.121l0.045,-0.122l0.045,-0.121l0.046,-0.121l0.046,-0.121l0.047,-0.121l0.047,-0.12l0.047,-0.12l0.048,-0.12l0.048,-0.12l0.048,-0.12l0.049,-0.12l0.049,-0.119l0.049,-0.119l0.05,-0.12l0.05,-0.118l0.05,-0.119l0.051,-0.119l0.051,-0.118l0.052,-0.118l0.052,-0.118l0.052,-0.118l0.052,-0.117l0.053,-0.118l0.053,-0.117l0.054,-0.117l0.054,-0.117l0.054,-0.116l0.055,-0.117l0.055,-0.116l0.055,-0.116l0.056,-0.116l0.056,-0.116l0.056,-0.115l0.057,-0.115l0.057,-0.115l0.057,-0.115l0.058,-0.115l0.058,-0.114l0.058,-0.115l0.059,-0.114l0.059,-0.114l0.059,-0.113l0.06,-0.114l0.06,-0.113l0.06,-0.113l0.061,-0.113l0.061,-0.113l0.061,-0.112l0.062,-0.112l0.062,-0.112l0.062,-0.112l0.063,-0.112l0.063,-0.111l0.063,-0.111l0.064,-0.111l0.064,-0.111l0.064,-0.111l0.065,-0.11l0.065,-0.11l0.065,-0.11l0.065,-0.11l0.066,-0.109l0.066,-0.11l0.067,-0.109l0.067,-0.109l0.067,-0.108l0.068,-0.109l0.067,-0.108l0.068,-0.108l0.069,-0.108l0.069,-0.107l0.069,-0.108l0.069,-0.107l0.07,-0.107l0.07,-0.106l0.07,-0.107l0.071,-0.106l0.071,-0.106l0.071,-0.106l0.072,-0.105l0.071,-0.106l0.073,-0.105l0.072,-0.105l0.073,-0.104l0.073,-0.105l0.073,-0.104l0.074,-0.104l0.074,-0.104l0.074,-0.103l0.075,-0.103l0.075,-0.103l0.075,-0.103l0.076,-0.103l0.076,-0.102l0.076,-0.102l0.076,-0.102l0.077,-0.101l0.077,-0.102l0.077,-0.101l0.078,-0.101l0.078,-0.101l0.078,-0.1l0.078,-0.1l0.079,-0.1l0.079,-0.1l0.08,-0.099l0.079,-0.099l0.08,-0.099l0.08,-0.099l0.081,-0.098l0.081,-0.099l0.081,-0.098l0.081,-0.097l0.082,-0.098l0.082,-0.097l0.082,-0.097l0.083,-0.097l0.083,-0.096l0.083,-0.097l0.083,-0.096l0.084,-0.095l0.084,-0.096l0.084,-0.095l0.085,-0.095l0.084,-0.095l0.086,-0.094l0.085,-0.094l0.086,-0.094l0.085,-0.094l0.087,-0.093l0.086,-0.093l0.087,-0.093l0.087,-0.093l0.087,-0.092l0.088,-0.093l0.088,-0.091l0.088,-0.092l0.088,-0.091l0.089,-0.091l0.089,-0.091l0.089,-0.091l0.089,-0.09l0.09,-0.09l0.09,-0.09l0.09,-0.089l0.091,-0.089l0.091,-0.089l0.091,-0.089l0.091,-0.088l0.092,-0.088l0.092,-0.088l0.092,-0.088l0.092,-0.087l0.093,-0.087l0.093,-0.087l0.093,-0.086l0.093,-0.087l0.094,-0.086l0.094,-0.085l0.094,-0.086l0.094,-0.085l0.095,-0.084l0.095,-0.085l0.095,-0.084l0.096,-0.084l0.096,-0.084l0.096,-0.083l0.096,-0.083l0.096,-0.083l0.097,-0.083l0.097,-0.082l0.097,-0.082l0.098,-0.082l0.097,-0.081l0.098,-0.081l0.099,-0.081l0.098,-0.081l0.099,-0.08l0.099,-0.08l0.099,-0.079l0.099,-0.08l0.1,-0.079l0.1,-0.079l0.1,-0.078l0.101,-0.078l0.1,-0.078l0.101,-0.078l0.101,-0.077l0.102,-0.077l0.101,-0.077l0.102,-0.076l0.102,-0.077l0.102,-0.075l0.103,-0.076l0.103,-0.075l0.103,-0.075l0.103,-0.075l0.104,-0.074l0.103,-0.074l0.104,-0.074l0.104,-0.073l0.105,-0.073l0.104,-0.073l0.105,-0.073l0.105,-0.072l0.106,-0.072l0.105,-0.071l0.106,-0.071l0.106,-0.071l0.106,-0.071l0.107,-0.07l0.106,-0.07l0.107,-0.07l0.107,-0.069l0.108,-0.069l0.107,-0.069l0.108,-0.069l0.108,-0.068l0.108,-0.068l0.109,-0.067l0.108,-0.067l0.109,-0.067l0.109,-0.067l0.11,-0.066l0.109,-0.066l0.11,-0.065l0.11,-0.066l0.11,-0.064l0.11,-0.065l0.111,-0.064l0.111,-0.064l0.111,-0.064l0.111,-0.063l0.111,-0.063l0.112,-0.063l0.112,-0.062l0.112,-0.062l0.112,-0.062l0.113,-0.061l0.112,-0.061l0.113,-0.061l0.113,-0.06l0.113,-0.06l0.114,-0.06l0.114,-0.059l0.113,-0.059l0.114,-0.059l0.115,-0.058l0.114,-0.058l0.115,-0.058l0.115,-0.057l0.115,-0.057l0.115,-0.057l0.116,-0.056l0.115,-0.056l0.116,-0.056l0.116,-0.055l0.116,-0.055l0.117,-0.055l0.116,-0.054l0.117,-0.054l0.117,-0.054l0.117,-0.053l0.118,-0.053l0.117,-0.052l0.118,-0.053l0.118,-0.051l0.118,-0.052l0.118,-0.051l0.119,-0.051l0.119,-0.05l0.119,-0.05l0.119,-0.05l0.119,-0.05l0.119,-0.049l0.12,-0.048l0.12,-0.049l0.12,-0.048l0.12,-0.047l0.12,-0.047l0.121,-0.047l0.12,-0.047l0.121,-0.046l0.121,-0.046l0.121,-0.045l0.122,-0.046l0.121,-0.044l0.122,-0.045l0.122,-0.044l0.122,-0.043l0.122,-0.044l0.123,-0.043l0.122,-0.042l0.123,-0.042l0.123,-0.042l0.123,-0.042l0.123,-0.041l0.124,-0.041l0.123,-0.04l0.124,-0.04l0.124,-0.04l0.124,-0.039l0.124,-0.039l0.125,-0.038l0.124,-0.038l0.125,-0.038l0.125,-0.038l0.125,-0.037l0.125,-0.036l0.126,-0.037l0.125,-0.036l0.126,-0.035l0.126,-0.035l0.126,-0.035l0.126,-0.034l0.126,-0.034l0.127,-0.034l0.126,-0.033l0.127,-0.033l0.127,-0.033l0.127,-0.032l0.128,-0.031l0.127,-0.032l0.128,-0.031l0.127,-0.03l0.128,-0.03l0.128,-0.03l0.128,-0.03l0.128,-0.029l0.129,-0.028l0.129,-0.028l0.128,-0.028l0.129,-0.028l0.129,-0.027l0.129,-0.026l0.13,-0.027l0.129,-0.026l0.13,-0.025l0.129,-0.025l0.13,-0.025l0.13,-0.024l0.13,-0.024l0.131,-0.024l0.13,-0.023l0.131,-0.022l0.13,-0.023l0.131,-0.022l0.131,-0.021l0.131,-0.021l0.131,-0.021l0.132,-0.02l0.131,-0.02l0.132,-0.02l0.132,-0.019l0.132,-0.019l0.132,-0.018l0.132,-0.018l0.132,-0.017l0.132,-0.017l0.133,-0.017l0.133,-0.016l0.132,-0.016l0.133,-0.015l0.133,-0.015l0.133,-0.015l0.134,-0.014l0.133,-0.014l0.134,-0.013l0.133,-0.013l0.134,-0.013l0.134,-0.012l0.134,-0.012l0.134,-0.011l0.134,-0.011l0.134,-0.01l0.135,-0.01l0.135,-0.01l0.134,-0.009l0.135,-0.009l0.135,-0.008l0.135,-0.008l0.135,-0.008l0.135,-0.007l0.136,-0.006l0.135,-0.007l0.136,-0.005l0.136,-0.006l0.135,-0.005l0.136,-0.004l0.136,-0.004l0.136,-0.004l0.137,-0.003l0.136,-0.003l0.136,-0.002l0.137,-0.002l0.137,-0.002l0.136,-0.001l0.137,-0.001l0.137,0l0.137,0Zm-0.26,4.125l-0.125,0l-0.124,0.001l-0.123,0.002l-0.123,0.001l-0.123,0.003l-0.124,0.002l-0.123,0.003l-0.124,0.003l-0.122,0.004l-0.123,0.004l-0.123,0.005l-0.122,0.005l-0.123,0.005l-0.122,0.005l-0.123,0.006l-0.121,0.007l-0.123,0.007l-0.122,0.007l-0.122,0.007l-0.122,0.008l-0.121,0.009l-0.122,0.008l-0.121,0.009l-0.121,0.01l-0.122,0.01l-0.121,0.01l-0.121,0.01l-0.121,0.011l-0.12,0.011l-0.121,0.012l-0.121,0.012l-0.12,0.013l-0.121,0.013l-0.12,0.013l-0.12,0.013l-0.119,0.014l-0.12,0.014l-0.121,0.015l-0.119,0.015l-0.119,0.016l-0.12,0.015l-0.119,0.016l-0.119,0.017l-0.119,0.017l-0.12,0.017l-0.118,0.018l-0.118,0.018l-0.119,0.018l-0.119,0.019l-0.118,0.019l-0.117,0.019l-0.119,0.02l-0.118,0.02l-0.118,0.021l-0.117,0.02l-0.118,0.022l-0.117,0.021l-0.117,0.022l-0.118,0.022l-0.117,0.023l-0.116,0.023l-0.117,0.023l-0.117,0.024l-0.117,0.024l-0.116,0.024l-0.116,0.025l-0.116,0.025l-0.116,0.026l-0.116,0.026l-0.116,0.026l-0.116,0.026l-0.115,0.027l-0.115,0.027l-0.116,0.028l-0.115,0.028l-0.114,0.028l-0.114,0.029l-0.116,0.029l-0.114,0.029l-0.114,0.03l-0.115,0.03l-0.114,0.03l-0.113,0.031l-0.114,0.031l-0.114,0.031l-0.114,0.032l-0.113,0.032l-0.113,0.032l-0.113,0.033l-0.113,0.033l-0.113,0.033l-0.112,0.034l-0.113,0.034l-0.113,0.035l-0.112,0.034l-0.111,0.035l-0.112,0.036l-0.113,0.036l-0.111,0.036l-0.111,0.036l-0.112,0.037l-0.111,0.037l-0.111,0.037l-0.111,0.038l-0.111,0.038l-0.11,0.038l-0.111,0.039l-0.11,0.039l-0.11,0.039l-0.11,0.04l-0.109,0.04l-0.11,0.041l-0.11,0.04l-0.109,0.041l-0.109,0.042l-0.109,0.041l-0.109,0.042l-0.109,0.043l-0.108,0.042l-0.109,0.043l-0.108,0.044l-0.108,0.043l-0.108,0.044l-0.107,0.044l-0.108,0.045l-0.108,0.045l-0.107,0.045l-0.107,0.046l-0.107,0.045l-0.106,0.046l-0.107,0.047l-0.106,0.047l-0.107,0.047l-0.106,0.047l-0.105,0.048l-0.106,0.048l-0.106,0.048l-0.106,0.049l-0.104,0.049l-0.105,0.049l-0.106,0.05l-0.104,0.049l-0.104,0.051l-0.105,0.05l-0.104,0.051l-0.104,0.051l-0.104,0.052l-0.104,0.052l-0.103,0.051l-0.103,0.053l-0.103,0.052l-0.104,0.054l-0.103,0.053l-0.101,0.053l-0.103,0.054l-0.102,0.054l-0.102,0.055l-0.102,0.055l-0.102,0.054l-0.101,0.056l-0.102,0.056l-0.101,0.055l-0.101,0.057l-0.1,0.056l-0.102,0.057l-0.1,0.057l-0.099,0.057l-0.101,0.059l-0.099,0.057l-0.099,0.058l-0.1,0.059l-0.1,0.06l-0.099,0.058l-0.099,0.06l-0.098,0.06l-0.099,0.06l-0.099,0.06l-0.097,0.061l-0.097,0.06l-0.099,0.062l-0.097,0.061l-0.097,0.062l-0.098,0.063l-0.097,0.062l-0.096,0.062l-0.096,0.063l-0.096,0.063l-0.098,0.064l-0.095,0.064l-0.096,0.064l-0.095,0.064l-0.096,0.065l-0.094,0.064l-0.095,0.066l-0.095,0.065l-0.095,0.066l-0.094,0.066l-0.094,0.066l-0.094,0.067l-0.094,0.067l-0.093,0.067l-0.094,0.067l-0.092,0.068l-0.093,0.068l-0.093,0.068l-0.093,0.069l-0.091,0.068l-0.092,0.069l-0.092,0.07l-0.091,0.069l-0.092,0.07l-0.091,0.07l-0.091,0.07l-0.091,0.071l-0.091,0.071l-0.09,0.071l-0.089,0.071l-0.09,0.072l-0.09,0.072l-0.089,0.072l-0.09,0.073l-0.088,0.072l-0.089,0.073l-0.088,0.073l-0.089,0.075l-0.088,0.073l-0.088,0.074l-0.087,0.074l-0.088,0.075l-0.087,0.075l-0.087,0.075l-0.087,0.076l-0.086,0.075l-0.086,0.076l-0.086,0.076l-0.086,0.076l-0.086,0.077l-0.085,0.077l-0.084,0.076l-0.086,0.078l-0.084,0.078l-0.085,0.078l-0.084,0.078l-0.084,0.078l-0.083,0.078l-0.084,0.079l-0.083,0.08l-0.084,0.08l-0.082,0.079l-0.082,0.079l-0.083,0.081l-0.082,0.08l-0.082,0.081l-0.082,0.081l-0.08,0.08l-0.081,0.081l-0.082,0.082l-0.08,0.082l-0.08,0.082l-0.081,0.083l-0.079,0.082l-0.08,0.082l-0.079,0.083l-0.08,0.084l-0.078,0.083l-0.079,0.084l-0.079,0.084l-0.078,0.084l-0.077,0.084l-0.078,0.085l-0.077,0.085l-0.077,0.085l-0.077,0.086l-0.077,0.085l-0.076,0.086l-0.076,0.086l-0.076,0.086l-0.075,0.086l-0.076,0.087l-0.075,0.087l-0.075,0.087l-0.074,0.087l-0.075,0.088l-0.074,0.088l-0.074,0.089l-0.073,0.087l-0.074,0.089l-0.072,0.089l-0.073,0.088l-0.073,0.09l-0.072,0.089l-0.072,0.089l-0.071,0.09l-0.072,0.09l-0.071,0.091l-0.071,0.09l-0.071,0.091l-0.07,0.091l-0.07,0.091l-0.07,0.091l-0.069,0.091l-0.07,0.093l-0.069,0.092l-0.069,0.092l-0.067,0.091l-0.07,0.094l-0.067,0.093l-0.067,0.092l-0.068,0.094l-0.067,0.094l-0.068,0.093l-0.066,0.094l-0.066,0.094l-0.066,0.094l-0.065,0.094l-0.066,0.096l-0.065,0.094l-0.065,0.096l-0.065,0.095l-0.064,0.095l-0.064,0.096l-0.064,0.096l-0.063,0.096l-0.064,0.097l-0.063,0.096l-0.062,0.096l-0.063,0.098l-0.062,0.097l-0.061,0.097l-0.062,0.097l-0.061,0.097l-0.061,0.099l-0.061,0.098l-0.06,0.098l-0.061,0.099l-0.059,0.098l-0.059,0.099l-0.06,0.099l-0.059,0.1l-0.058,0.099l-0.059,0.1l-0.058,0.1l-0.057,0.099l-0.057,0.1l-0.058,0.101l-0.057,0.1l-0.056,0.102l-0.057,0.1l-0.056,0.102l-0.055,0.101l-0.055,0.1l-0.055,0.102l-0.055,0.102l-0.055,0.102l-0.054,0.103l-0.054,0.103l-0.053,0.102l-0.053,0.102l-0.054,0.104l-0.052,0.103l-0.052,0.102l-0.052,0.104l-0.052,0.104l-0.051,0.103l-0.052,0.106l-0.051,0.103l-0.05,0.104l-0.051,0.106l-0.049,0.104l-0.05,0.104l-0.049,0.106l-0.049,0.104l-0.049,0.106l-0.048,0.106l-0.048,0.105l-0.048,0.107l-0.047,0.105l-0.047,0.106l-0.047,0.107l-0.047,0.107l-0.046,0.107l-0.045,0.106l-0.046,0.107l-0.045,0.108l-0.045,0.108l-0.044,0.106l-0.045,0.108l-0.044,0.109l-0.043,0.106l-0.043,0.108l-0.044,0.11l-0.042,0.109l-0.043,0.108l-0.041,0.108l-0.042,0.11l-0.042,0.109l-0.04,0.109l-0.042,0.11l-0.039,0.109l-0.04,0.109l-0.04,0.111l-0.04,0.11l-0.039,0.111l-0.039,0.11l-0.038,0.11l-0.038,0.111l-0.038,0.111l-0.037,0.111l-0.037,0.11l-0.037,0.113l-0.037,0.111l-0.035,0.111l-0.036,0.113l-0.036,0.112l-0.035,0.111l-0.034,0.112l-0.035,0.113l-0.034,0.113l-0.034,0.112l-0.033,0.112l-0.033,0.113l-0.033,0.114l-0.032,0.112l-0.032,0.114l-0.032,0.115l-0.031,0.113l-0.031,0.113l-0.031,0.114l-0.03,0.115l-0.031,0.114l-0.029,0.114l-0.029,0.114l-0.029,0.115l-0.029,0.115l-0.028,0.114l-0.028,0.116l-0.028,0.116l-0.027,0.114l-0.027,0.115l-0.026,0.115l-0.026,0.117l-0.026,0.116l-0.026,0.116l-0.025,0.116l-0.024,0.116l-0.025,0.116l-0.024,0.118l-0.024,0.116l-0.023,0.116l-0.023,0.117l-0.023,0.117l-0.022,0.117l-0.022,0.117l-0.021,0.118l-0.022,0.118l-0.02,0.117l-0.021,0.118l-0.02,0.119l-0.02,0.118l-0.019,0.116l-0.019,0.12l-0.019,0.118l-0.018,0.118l-0.018,0.12l-0.018,0.117l-0.017,0.119l-0.017,0.121l-0.016,0.117l-0.016,0.12l-0.016,0.12l-0.016,0.119l-0.015,0.119l-0.015,0.121l-0.014,0.119l-0.014,0.12l-0.013,0.12l-0.013,0.119l-0.013,0.122l-0.013,0.121l-0.012,0.119l-0.011,0.121l-0.012,0.121l-0.011,0.121l-0.01,0.12l-0.01,0.122l-0.01,0.121l-0.01,0.122l-0.009,0.122l-0.008,0.121l-0.009,0.121l-0.008,0.122l-0.007,0.122l-0.007,0.123l-0.007,0.122l-0.006,0.12l-0.006,0.123l-0.006,0.123l-0.005,0.122l-0.005,0.123l-0.005,0.124l-0.004,0.122l-0.004,0.122l-0.003,0.124l-0.003,0.124l-0.002,0.123l-0.002,0.122l-0.002,0.125l-0.002,0.123l-0.001,0.123l0,0.125l0,0.123l0,0.124l0,0.124l0.001,0.123l0.002,0.124l0.002,0.124l0.002,0.123l0.002,0.122l0.003,0.124l0.003,0.124l0.004,0.122l0.004,0.123l0.005,0.123l0.005,0.123l0.005,0.122l0.006,0.123l0.006,0.123l0.006,0.12l0.007,0.123l0.007,0.122l0.007,0.123l0.008,0.122l0.009,0.121l0.008,0.12l0.009,0.122l0.01,0.122l0.01,0.121l0.01,0.122l0.01,0.12l0.011,0.121l0.012,0.121l0.011,0.121l0.012,0.119l0.013,0.121l0.013,0.122l0.013,0.119l0.013,0.12l0.014,0.12l0.014,0.119l0.015,0.121l0.015,0.12l0.016,0.118l0.016,0.121l0.016,0.119l0.016,0.118l0.017,0.12l0.017,0.119l0.018,0.117l0.018,0.12l0.018,0.118l0.019,0.119l0.019,0.119l0.019,0.117l0.02,0.118l0.02,0.119l0.021,0.117l0.02,0.118l0.022,0.117l0.021,0.118l0.022,0.117l0.022,0.117l0.023,0.118l0.023,0.116l0.023,0.117l0.024,0.116l0.024,0.117l0.025,0.116l0.024,0.116l0.025,0.117l0.026,0.115l0.026,0.117l0.026,0.116l0.026,0.115l0.027,0.115l0.027,0.115l0.028,0.115l0.028,0.116l0.028,0.114l0.029,0.116l0.029,0.115l0.029,0.113l0.029,0.114l0.031,0.115l0.03,0.114l0.031,0.114l0.031,0.113l0.031,0.113l0.032,0.115l0.032,0.114l0.032,0.112l0.033,0.114l0.033,0.113l0.033,0.112l0.034,0.113l0.034,0.112l0.035,0.113l0.034,0.112l0.035,0.112l0.036,0.111l0.036,0.113l0.035,0.111l0.037,0.112l0.037,0.112l0.037,0.11l0.037,0.111l0.038,0.111l0.038,0.111l0.038,0.11l0.039,0.111l0.039,0.11l0.04,0.11l0.04,0.111l0.04,0.11l0.039,0.108l0.042,0.11l0.041,0.11l0.041,0.109l0.042,0.109l0.041,0.108l0.043,0.108l0.042,0.11l0.044,0.109l0.043,0.108l0.043,0.106l0.044,0.109l0.045,0.108l0.044,0.107l0.045,0.108l0.045,0.108l0.046,0.106l0.045,0.107l0.046,0.106l0.047,0.107l0.047,0.107l0.047,0.106l0.047,0.105l0.048,0.107l0.048,0.105l0.048,0.106l0.049,0.106l0.049,0.105l0.049,0.105l0.05,0.105l0.049,0.104l0.051,0.105l0.05,0.104l0.051,0.104l0.052,0.105l0.051,0.103l0.052,0.104l0.052,0.104l0.052,0.102l0.053,0.104l0.053,0.103l0.052,0.102l0.054,0.103l0.054,0.102l0.054,0.103l0.055,0.102l0.055,0.102l0.055,0.102l0.055,0.1l0.055,0.102l0.056,0.101l0.057,0.101l0.056,0.101l0.057,0.1l0.058,0.102l0.057,0.1l0.057,0.099l0.058,0.1l0.059,0.099l0.058,0.099l0.059,0.099l0.06,0.101l0.059,0.098l0.059,0.098l0.061,0.099l0.06,0.098l0.061,0.098l0.061,0.099l0.061,0.097l0.062,0.098l0.061,0.097l0.062,0.097l0.063,0.097l0.062,0.096l0.063,0.097l0.064,0.097l0.063,0.095l0.063,0.096l0.065,0.097l0.064,0.095l0.064,0.094l0.066,0.096l0.065,0.095l0.065,0.095l0.066,0.095l0.066,0.094l0.066,0.093l0.066,0.093l0.068,0.095l0.067,0.094l0.068,0.093l0.067,0.093l0.067,0.092l0.07,0.094l0.068,0.092l0.068,0.091l0.069,0.093l0.07,0.091l0.069,0.092l0.07,0.091l0.07,0.092l0.07,0.09l0.071,0.09l0.071,0.091l0.071,0.091l0.072,0.09l0.071,0.09l0.072,0.089l0.072,0.089l0.073,0.09l0.073,0.089l0.073,0.089l0.073,0.088l0.073,0.087l0.075,0.09l0.073,0.087l0.075,0.088l0.074,0.087l0.075,0.087l0.075,0.087l0.076,0.087l0.075,0.086l0.076,0.086l0.076,0.087l0.076,0.085l0.077,0.086l0.076,0.085l0.078,0.085l0.077,0.085l0.078,0.085l0.077,0.084l0.079,0.084l0.078,0.085l0.079,0.083l0.079,0.084l0.079,0.083l0.079,0.083l0.08,0.082l0.079,0.083l0.081,0.082l0.08,0.083l0.08,0.081l0.082,0.082l0.081,0.081l0.08,0.08l0.082,0.082l0.082,0.081l0.082,0.08l0.083,0.08l0.082,0.079l0.082,0.08l0.084,0.079l0.083,0.08l0.084,0.079l0.083,0.078l0.084,0.078l0.084,0.079l0.085,0.078l0.084,0.077l0.085,0.078l0.085,0.077l0.085,0.076l0.086,0.077l0.085,0.076l0.087,0.077l0.087,0.076l0.085,0.075l0.087,0.075l0.087,0.076l0.087,0.074l0.088,0.075l0.087,0.074l0.088,0.074l0.088,0.074l0.089,0.074l0.088,0.073l0.088,0.072l0.09,0.074l0.089,0.072l0.089,0.072l0.089,0.072l0.09,0.072l0.09,0.071l0.09,0.071l0.091,0.071l0.091,0.071l0.091,0.07l0.091,0.07l0.092,0.07l0.091,0.07l0.092,0.069l0.092,0.069l0.091,0.069l0.093,0.068l0.093,0.069l0.093,0.067l0.092,0.068l0.095,0.068l0.093,0.067l0.093,0.066l0.094,0.067l0.094,0.066l0.094,0.066l0.094,0.066l0.095,0.065l0.096,0.066l0.094,0.065l0.096,0.064l0.096,0.065l0.095,0.063l0.095,0.064l0.098,0.064l0.095,0.063l0.097,0.063l0.097,0.063l0.096,0.062l0.097,0.062l0.098,0.062l0.097,0.061l0.098,0.062l0.098,0.061l0.098,0.06l0.098,0.06l0.098,0.06l0.099,0.06l0.099,0.06l0.099,0.059l0.1,0.059l0.099,0.059l0.1,0.058l0.099,0.058l0.101,0.058l0.1,0.057l0.099,0.057l0.101,0.057l0.101,0.057l0.101,0.056l0.101,0.056l0.102,0.055l0.101,0.056l0.102,0.055l0.102,0.055l0.102,0.054l0.102,0.054l0.102,0.054l0.102,0.053l0.103,0.054l0.104,0.053l0.103,0.053l0.103,0.052l0.103,0.052l0.104,0.051l0.104,0.052l0.104,0.051l0.104,0.051l0.105,0.051l0.104,0.05l0.104,0.049l0.106,0.05l0.104,0.049l0.105,0.049l0.107,0.049l0.105,0.048l0.105,0.048l0.106,0.048l0.106,0.047l0.107,0.048l0.106,0.046l0.107,0.047l0.106,0.046l0.107,0.046l0.108,0.046l0.106,0.044l0.108,0.045l0.108,0.045l0.107,0.044l0.108,0.044l0.108,0.044l0.109,0.043l0.108,0.043l0.108,0.042l0.109,0.043l0.109,0.042l0.109,0.042l0.11,0.041l0.108,0.041l0.109,0.04l0.111,0.041l0.11,0.04l0.109,0.04l0.11,0.039l0.11,0.039l0.111,0.039l0.11,0.038l0.111,0.038l0.111,0.038l0.111,0.037l0.111,0.038l0.112,0.036l0.111,0.037l0.111,0.036l0.113,0.036l0.112,0.035l0.111,0.035l0.112,0.035l0.113,0.034l0.113,0.034l0.112,0.034l0.113,0.033l0.113,0.033l0.113,0.033l0.113,0.033l0.113,0.031l0.114,0.032l0.114,0.032l0.114,0.031l0.113,0.03l0.114,0.03l0.115,0.031l0.114,0.029l0.114,0.029l0.116,0.03l0.114,0.028l0.114,0.028l0.115,0.028l0.116,0.028l0.115,0.027l0.116,0.027l0.116,0.027l0.115,0.026l0.116,0.025l0.116,0.026l0.116,0.025l0.116,0.025l0.116,0.024l0.117,0.024l0.117,0.024l0.117,0.023l0.117,0.023l0.116,0.023l0.117,0.022l0.117,0.022l0.118,0.022l0.118,0.021l0.117,0.021l0.118,0.02l0.118,0.02l0.118,0.02l0.119,0.02l0.118,0.019l0.118,0.018l0.118,0.019l0.119,0.018l0.118,0.017l0.12,0.017l0.119,0.017l0.118,0.017l0.12,0.016l0.12,0.016l0.119,0.015l0.12,0.015l0.12,0.015l0.119,0.014l0.12,0.014l0.12,0.014l0.12,0.013l0.121,0.012l0.121,0.013l0.12,0.012l0.12,0.012l0.121,0.011l0.121,0.011l0.121,0.011l0.122,0.01l0.12,0.01l0.122,0.009l0.121,0.009l0.122,0.009l0.122,0.008l0.121,0.008l0.122,0.008l0.122,0.007l0.122,0.006l0.123,0.007l0.122,0.006l0.122,0.006l0.123,0.005l0.122,0.005l0.123,0.004l0.123,0.004l0.123,0.004l0.123,0.003l0.123,0.003l0.124,0.003l0.123,0.002l0.123,0.002l0.124,0.001l0.124,0.001l0.123,0.001l0.124,0l0.124,0l0.124,-0.001l0.123,-0.001l0.124,-0.001l0.123,-0.002l0.124,-0.002l0.124,-0.003l0.122,-0.003l0.123,-0.003l0.123,-0.004l0.123,-0.004l0.124,-0.004l0.122,-0.005l0.122,-0.005l0.122,-0.006l0.123,-0.006l0.122,-0.007l0.122,-0.006l0.122,-0.007l0.122,-0.008l0.122,-0.008l0.122,-0.008l0.121,-0.009l0.122,-0.009l0.121,-0.009l0.121,-0.01l0.121,-0.01l0.122,-0.011l0.12,-0.011l0.121,-0.011l0.12,-0.012l0.12,-0.012l0.122,-0.013l0.12,-0.012l0.12,-0.013l0.12,-0.014l0.12,-0.014l0.12,-0.014l0.12,-0.015l0.12,-0.015l0.119,-0.015l0.119,-0.016l0.12,-0.016l0.118,-0.017l0.12,-0.017l0.119,-0.017l0.119,-0.017l0.118,-0.018l0.118,-0.019l0.119,-0.018l0.118,-0.019l0.119,-0.02l0.117,-0.02l0.118,-0.02l0.118,-0.02l0.118,-0.021l0.117,-0.021l0.118,-0.022l0.117,-0.022l0.117,-0.022l0.117,-0.023l0.117,-0.023l0.117,-0.023l0.117,-0.024l0.116,-0.024l0.116,-0.024l0.117,-0.025l0.116,-0.025l0.116,-0.026l0.116,-0.025l0.115,-0.026l0.115,-0.027l0.116,-0.027l0.115,-0.027l0.116,-0.028l0.115,-0.028l0.114,-0.028l0.115,-0.028l0.115,-0.029l0.115,-0.03l0.114,-0.029l0.115,-0.031l0.113,-0.03l0.114,-0.03l0.114,-0.031l0.114,-0.032l0.113,-0.032l0.113,-0.031l0.114,-0.033l0.113,-0.033l0.112,-0.033l0.114,-0.033l0.112,-0.034l0.113,-0.034l0.112,-0.034l0.112,-0.035l0.112,-0.035l0.112,-0.035l0.112,-0.036l0.112,-0.036l0.111,-0.037l0.111,-0.036l0.112,-0.038l0.111,-0.037l0.11,-0.038l0.111,-0.038l0.111,-0.038l0.111,-0.039l0.109,-0.039l0.11,-0.039l0.11,-0.04l0.11,-0.04l0.11,-0.041l0.109,-0.04l0.109,-0.041l0.11,-0.042l0.109,-0.041l0.108,-0.042l0.109,-0.043l0.109,-0.042l0.108,-0.043l0.108,-0.043l0.108,-0.044l0.108,-0.044l0.108,-0.044l0.108,-0.045l0.107,-0.045l0.107,-0.045l0.108,-0.045l0.106,-0.046l0.106,-0.046l0.107,-0.047l0.107,-0.047l0.106,-0.046l0.106,-0.048l0.106,-0.048l0.105,-0.047l0.106,-0.049l0.106,-0.049l0.106,-0.049l0.104,-0.049l0.104,-0.049l0.105,-0.05l0.105,-0.05l0.104,-0.051l0.105,-0.051l0.103,-0.051l0.104,-0.051l0.104,-0.052l0.104,-0.052l0.103,-0.052l0.103,-0.053l0.103,-0.053l0.103,-0.053l0.102,-0.054l0.103,-0.054l0.102,-0.054l0.101,-0.054l0.102,-0.055l0.102,-0.055l0.102,-0.056l0.101,-0.055l0.101,-0.056l0.101,-0.056l0.101,-0.057l0.101,-0.057l0.1,-0.057l0.1,-0.057l0.1,-0.058l0.1,-0.058l0.1,-0.059l0.099,-0.058l0.099,-0.059l0.1,-0.06l0.099,-0.059l0.098,-0.059l0.098,-0.061l0.098,-0.06l0.098,-0.06l0.098,-0.061l0.098,-0.062l0.097,-0.061l0.098,-0.062l0.097,-0.062l0.097,-0.062l0.097,-0.063l0.097,-0.063l0.096,-0.063l0.095,-0.064l0.096,-0.063l0.096,-0.064l0.096,-0.065l0.095,-0.064l0.095,-0.066l0.095,-0.065l0.095,-0.065l0.094,-0.066l0.094,-0.066l0.094,-0.066l0.095,-0.067l0.093,-0.067l0.093,-0.066l0.093,-0.068l0.094,-0.068l0.092,-0.067l0.094,-0.069l0.092,-0.068l0.092,-0.069l0.092,-0.069l0.091,-0.069l0.092,-0.07l0.091,-0.07l0.092,-0.07l0.09,-0.07l0.091,-0.071l0.091,-0.071l0.09,-0.071l0.09,-0.071l0.09,-0.072l0.089,-0.072l0.089,-0.072l0.09,-0.072l0.089,-0.074l0.089,-0.072l0.088,-0.073l0.088,-0.074l0.088,-0.074l0.088,-0.074l0.088,-0.074l0.087,-0.075l0.088,-0.075l0.087,-0.075l0.086,-0.075l0.086,-0.075l0.087,-0.076l0.086,-0.077l0.085,-0.076l0.086,-0.077l0.085,-0.076l0.086,-0.078l0.085,-0.077l0.084,-0.077l0.084,-0.078l0.084,-0.078l0.085,-0.079l0.083,-0.079l0.084,-0.079l0.082,-0.078l0.084,-0.08l0.083,-0.08l0.082,-0.079l0.082,-0.08l0.083,-0.081l0.081,-0.08l0.082,-0.081l0.081,-0.081l0.081,-0.081l0.081,-0.082l0.081,-0.082l0.08,-0.082l0.079,-0.082l0.081,-0.083l0.079,-0.082l0.079,-0.083l0.08,-0.083l0.079,-0.085l0.078,-0.082l0.078,-0.084l0.079,-0.085l0.077,-0.084l0.078,-0.085l0.077,-0.085l0.078,-0.085l0.077,-0.085l0.076,-0.086l0.077,-0.085l0.076,-0.087l0.075,-0.086l0.076,-0.086l0.075,-0.087l0.075,-0.087l0.075,-0.087l0.075,-0.087l0.075,-0.088l0.074,-0.088l0.073,-0.088l0.074,-0.088l0.073,-0.088l0.072,-0.089l0.074,-0.089l0.072,-0.09l0.072,-0.088l0.072,-0.09l0.072,-0.09l0.071,-0.09l0.072,-0.091l0.071,-0.091l0.07,-0.09l0.07,-0.09l0.071,-0.092l0.069,-0.091l0.07,-0.092l0.069,-0.091l0.069,-0.093l0.069,-0.091l0.068,-0.092l0.069,-0.094l0.068,-0.092l0.067,-0.093l0.068,-0.094l0.067,-0.093l0.067,-0.094l0.066,-0.094l0.066,-0.093l0.067,-0.095l0.065,-0.094l0.065,-0.094l0.066,-0.096l0.065,-0.096l0.064,-0.094l0.064,-0.095l0.065,-0.097l0.064,-0.096l0.063,-0.095l0.063,-0.097l0.063,-0.097l0.063,-0.096l0.062,-0.097l0.062,-0.097l0.062,-0.097l0.061,-0.098l0.062,-0.098l0.061,-0.098l0.06,-0.098l0.061,-0.098l0.059,-0.098l0.061,-0.1l0.059,-0.097l0.059,-0.1l0.059,-0.1l0.059,-0.099l0.058,-0.099l0.058,-0.1l0.058,-0.1l0.057,-0.1l0.057,-0.101l0.057,-0.099l0.056,-0.101l0.057,-0.102l0.056,-0.101l0.056,-0.102l0.055,-0.1l0.055,-0.102l0.055,-0.103l0.054,-0.101l0.054,-0.102l0.054,-0.103l0.054,-0.103l0.053,-0.102l0.053,-0.103l0.053,-0.104l0.052,-0.102l0.052,-0.104l0.052,-0.104l0.051,-0.104l0.052,-0.104l0.05,-0.104l0.05,-0.104l0.051,-0.104l0.05,-0.105l0.049,-0.105l0.05,-0.105l0.049,-0.106l0.048,-0.105l0.048,-0.105l0.048,-0.106l0.048,-0.107l0.048,-0.105l0.046,-0.106l0.047,-0.107l0.047,-0.107l0.046,-0.106l0.046,-0.107l0.046,-0.107l0.045,-0.107l0.044,-0.107l0.045,-0.109l0.044,-0.107l0.044,-0.108l0.044,-0.107l0.043,-0.109l0.043,-0.108l0.042,-0.108l0.043,-0.11l0.042,-0.109l0.042,-0.108l0.041,-0.109l0.041,-0.11l0.041,-0.109l0.04,-0.109l0.04,-0.111l0.04,-0.11l0.039,-0.109l0.039,-0.111l0.039,-0.111l0.038,-0.11l0.038,-0.111l0.038,-0.111l0.038,-0.111l0.037,-0.111l0.037,-0.111l0.036,-0.111l0.036,-0.112l0.036,-0.113l0.035,-0.111l0.035,-0.112l0.035,-0.112l0.034,-0.113l0.034,-0.112l0.034,-0.113l0.033,-0.112l0.033,-0.113l0.033,-0.114l0.033,-0.113l0.032,-0.114l0.031,-0.112l0.032,-0.113l0.031,-0.115l0.03,-0.114l0.031,-0.114l0.03,-0.115l0.029,-0.114l0.029,-0.113l0.029,-0.115l0.029,-0.116l0.028,-0.114l0.028,-0.116l0.028,-0.115l0.027,-0.115l0.027,-0.115l0.027,-0.116l0.026,-0.115l0.025,-0.116l0.026,-0.116l0.025,-0.117l0.025,-0.116l0.024,-0.116l0.024,-0.117l0.024,-0.116l0.023,-0.117l0.023,-0.117l0.023,-0.117l0.022,-0.117l0.022,-0.117l0.022,-0.117l0.021,-0.118l0.021,-0.118l0.02,-0.119l0.021,-0.117l0.019,-0.117l0.02,-0.119l0.019,-0.118l0.018,-0.119l0.019,-0.118l0.018,-0.119l0.017,-0.118l0.017,-0.119l0.017,-0.12l0.017,-0.118l0.016,-0.119l0.016,-0.121l0.015,-0.118l0.015,-0.12l0.015,-0.121l0.014,-0.119l0.014,-0.12l0.014,-0.12l0.013,-0.12l0.013,-0.121l0.012,-0.119l0.012,-0.121l0.012,-0.121l0.011,-0.121l0.011,-0.121l0.011,-0.121l0.01,-0.121l0.01,-0.121l0.009,-0.122l0.009,-0.12l0.009,-0.122l0.008,-0.122l0.008,-0.121l0.008,-0.123l0.007,-0.122l0.007,-0.122l0.006,-0.122l0.006,-0.122l0.006,-0.123l0.005,-0.123l0.005,-0.122l0.004,-0.122l0.004,-0.124l0.004,-0.123l0.003,-0.122l0.003,-0.123l0.003,-0.124l0.002,-0.123l0.002,-0.124l0.001,-0.124l0.001,-0.123l0.001,-0.124l0,-0.124l0,-0.123l-0.001,-0.125l-0.001,-0.123l-0.001,-0.123l-0.002,-0.125l-0.002,-0.122l-0.003,-0.124l-0.003,-0.124l-0.003,-0.121l-0.004,-0.124l-0.004,-0.124l-0.004,-0.122l-0.005,-0.122l-0.005,-0.123l-0.006,-0.123l-0.006,-0.121l-0.006,-0.123l-0.007,-0.121l-0.007,-0.123l-0.008,-0.122l-0.008,-0.121l-0.008,-0.122l-0.009,-0.122l-0.009,-0.121l-0.009,-0.122l-0.01,-0.121l-0.01,-0.12l-0.011,-0.122l-0.011,-0.121l-0.011,-0.121l-0.012,-0.121l-0.012,-0.12l-0.012,-0.12l-0.013,-0.12l-0.013,-0.121l-0.014,-0.12l-0.014,-0.12l-0.014,-0.119l-0.015,-0.121l-0.015,-0.119l-0.015,-0.119l-0.016,-0.12l-0.016,-0.12l-0.017,-0.117l-0.017,-0.121l-0.017,-0.119l-0.017,-0.118l-0.018,-0.119l-0.019,-0.118l-0.018,-0.118l-0.019,-0.119l-0.02,-0.119l-0.019,-0.116l-0.021,-0.118l-0.02,-0.119l-0.021,-0.117l-0.021,-0.119l-0.022,-0.117l-0.022,-0.117l-0.022,-0.117l-0.023,-0.116l-0.023,-0.118l-0.023,-0.116l-0.024,-0.116l-0.024,-0.118l-0.024,-0.116l-0.025,-0.116l-0.025,-0.116l-0.026,-0.117l-0.025,-0.115l-0.026,-0.116l-0.027,-0.116l-0.027,-0.115l-0.027,-0.114l-0.028,-0.116l-0.028,-0.116l-0.028,-0.114l-0.029,-0.115l-0.029,-0.115l-0.029,-0.114l-0.029,-0.114l-0.03,-0.114l-0.031,-0.115l-0.03,-0.114l-0.032,-0.114l-0.031,-0.113l-0.031,-0.113l-0.032,-0.114l-0.033,-0.113l-0.033,-0.114l-0.033,-0.113l-0.033,-0.112l-0.034,-0.112l-0.034,-0.113l-0.034,-0.113l-0.035,-0.112l-0.035,-0.111l-0.035,-0.112l-0.036,-0.113l-0.036,-0.112l-0.036,-0.11l-0.037,-0.112l-0.037,-0.111l-0.038,-0.111l-0.038,-0.111l-0.038,-0.111l-0.038,-0.11l-0.039,-0.11l-0.039,-0.112l-0.039,-0.109l-0.04,-0.11l-0.04,-0.11l-0.04,-0.11l-0.041,-0.109l-0.041,-0.109l-0.041,-0.109l-0.042,-0.109l-0.042,-0.109l-0.043,-0.109l-0.042,-0.108l-0.043,-0.109l-0.043,-0.109l-0.044,-0.107l-0.044,-0.108l-0.044,-0.107l-0.045,-0.108l-0.044,-0.107l-0.045,-0.107l-0.046,-0.108l-0.046,-0.106l-0.046,-0.107l-0.047,-0.107l-0.046,-0.107l-0.047,-0.106l-0.048,-0.105l-0.048,-0.107l-0.048,-0.106l-0.048,-0.105l-0.048,-0.105l-0.049,-0.105l-0.05,-0.106l-0.049,-0.104l-0.05,-0.105l-0.051,-0.105l-0.05,-0.104l-0.05,-0.103l-0.052,-0.105l-0.051,-0.104l-0.052,-0.104l-0.052,-0.104l-0.052,-0.102l-0.053,-0.103l-0.053,-0.104l-0.053,-0.102l-0.054,-0.102l-0.054,-0.104l-0.054,-0.102l-0.054,-0.101l-0.055,-0.103l-0.055,-0.102l-0.055,-0.1l-0.056,-0.101l-0.056,-0.102l-0.057,-0.101l-0.056,-0.102l-0.057,-0.099l-0.057,-0.1l-0.057,-0.1l-0.058,-0.1l-0.058,-0.1l-0.058,-0.1l-0.059,-0.099l-0.059,-0.1l-0.059,-0.099l-0.059,-0.098l-0.061,-0.1l-0.06,-0.098l-0.06,-0.098l-0.06,-0.098l-0.061,-0.098l-0.062,-0.098l-0.061,-0.097l-0.062,-0.097l-0.062,-0.097l-0.063,-0.098l-0.062,-0.096l-0.063,-0.096l-0.063,-0.097l-0.064,-0.096l-0.063,-0.096l-0.065,-0.096l-0.064,-0.095l-0.064,-0.095l-0.065,-0.096l-0.066,-0.095l-0.065,-0.095l-0.065,-0.093l-0.067,-0.095l-0.066,-0.094l-0.067,-0.094l-0.066,-0.093l-0.067,-0.093l-0.068,-0.095l-0.067,-0.092l-0.068,-0.093l-0.069,-0.094l-0.068,-0.091l-0.068,-0.092l-0.07,-0.092l-0.069,-0.093l-0.07,-0.091l-0.069,-0.091l-0.071,-0.091l-0.07,-0.091l-0.07,-0.091l-0.071,-0.09l-0.072,-0.091l-0.071,-0.09l-0.072,-0.09l-0.072,-0.089l-0.072,-0.089l-0.072,-0.089l-0.074,-0.09l-0.072,-0.088l-0.073,-0.089l-0.074,-0.088l-0.073,-0.087l-0.074,-0.088l-0.075,-0.089l-0.075,-0.087l-0.075,-0.087l-0.075,-0.087l-0.075,-0.087l-0.076,-0.086l-0.075,-0.086l-0.076,-0.086l-0.077,-0.086l-0.076,-0.085l-0.077,-0.086l-0.078,-0.085l-0.077,-0.085l-0.078,-0.085l-0.077,-0.084l-0.079,-0.084l-0.078,-0.084l-0.078,-0.083l-0.079,-0.084l-0.08,-0.084l-0.079,-0.083l-0.079,-0.082l-0.081,-0.083l-0.079,-0.082l-0.08,-0.082l-0.081,-0.082l-0.081,-0.082l-0.081,-0.081l-0.081,-0.081l-0.082,-0.08l-0.081,-0.08l-0.082,-0.081l-0.084,-0.081l-0.081,-0.079l-0.083,-0.08l-0.084,-0.08l-0.082,-0.078l-0.084,-0.079l-0.083,-0.079l-0.085,-0.078l-0.084,-0.079l-0.084,-0.077l-0.084,-0.077l-0.086,-0.078l-0.085,-0.077l-0.084,-0.077l-0.087,-0.077l-0.085,-0.076l-0.086,-0.076l-0.087,-0.076l-0.086,-0.076l-0.087,-0.075l-0.086,-0.074l-0.088,-0.076l-0.088,-0.075l-0.087,-0.074l-0.088,-0.074l-0.088,-0.074l-0.088,-0.073l-0.088,-0.073l-0.089,-0.074l-0.089,-0.072l-0.089,-0.073l-0.09,-0.072l-0.089,-0.072l-0.09,-0.072l-0.09,-0.071l-0.09,-0.071l-0.091,-0.071l-0.091,-0.071l-0.09,-0.07l-0.092,-0.07l-0.091,-0.07l-0.092,-0.07l-0.091,-0.069l-0.092,-0.069l-0.092,-0.068l-0.092,-0.069l-0.094,-0.068l-0.092,-0.068l-0.094,-0.068l-0.093,-0.067l-0.092,-0.067l-0.095,-0.067l-0.094,-0.067l-0.093,-0.066l-0.094,-0.066l-0.096,-0.066l-0.094,-0.065l-0.095,-0.065l-0.095,-0.065l-0.095,-0.065l-0.096,-0.064l-0.096,-0.065l-0.096,-0.063l-0.095,-0.064l-0.097,-0.063l-0.096,-0.063l-0.097,-0.062l-0.097,-0.062l-0.097,-0.063l-0.098,-0.062l-0.097,-0.061l-0.098,-0.062l-0.098,-0.06l-0.097,-0.061l-0.099,-0.061l-0.099,-0.06l-0.097,-0.059l-0.099,-0.059l-0.1,-0.06l-0.099,-0.059l-0.1,-0.058l-0.099,-0.059l-0.1,-0.058l-0.1,-0.058l-0.099,-0.056l-0.101,-0.058l-0.101,-0.057l-0.101,-0.056l-0.101,-0.057l-0.101,-0.055l-0.101,-0.056l-0.102,-0.056l-0.101,-0.054l-0.102,-0.055l-0.102,-0.055l-0.103,-0.054l-0.102,-0.054l-0.102,-0.053l-0.103,-0.053l-0.103,-0.054l-0.103,-0.052l-0.103,-0.053l-0.104,-0.051l-0.104,-0.052l-0.103,-0.052l-0.104,-0.051l-0.105,-0.051l-0.104,-0.05l-0.105,-0.051l-0.104,-0.049l-0.105,-0.05l-0.105,-0.049l-0.105,-0.049l-0.106,-0.049l-0.106,-0.048l-0.105,-0.048l-0.106,-0.048l-0.106,-0.047l-0.106,-0.047l-0.107,-0.047l-0.107,-0.047l-0.106,-0.046l-0.106,-0.045l-0.107,-0.046l-0.108,-0.045l-0.108,-0.045l-0.107,-0.045l-0.108,-0.044l-0.108,-0.044l-0.108,-0.043l-0.108,-0.044l-0.108,-0.043l-0.109,-0.042l-0.109,-0.043l-0.108,-0.042l-0.109,-0.041l-0.109,-0.042l-0.11,-0.041l-0.11,-0.04l-0.109,-0.041l-0.11,-0.04l-0.11,-0.04l-0.11,-0.039l-0.109,-0.039l-0.111,-0.039l-0.111,-0.038l-0.11,-0.038l-0.111,-0.038l-0.112,-0.037l-0.111,-0.037l-0.111,-0.037l-0.111,-0.036l-0.112,-0.037l-0.112,-0.035l-0.112,-0.036l-0.112,-0.035l-0.112,-0.034l-0.112,-0.035l-0.113,-0.034l-0.112,-0.034l-0.114,-0.033l-0.112,-0.033l-0.113,-0.033l-0.114,-0.032l-0.113,-0.032l-0.113,-0.032l-0.114,-0.031l-0.114,-0.031l-0.114,-0.031l-0.113,-0.03l-0.115,-0.03l-0.114,-0.03l-0.115,-0.029l-0.115,-0.029l-0.115,-0.029l-0.114,-0.028l-0.115,-0.028l-0.116,-0.028l-0.115,-0.027l-0.115,-0.027l-0.115,-0.026l-0.117,-0.026l-0.116,-0.026l-0.115,-0.026l-0.116,-0.025l-0.117,-0.025l-0.116,-0.024l-0.116,-0.024l-0.117,-0.024l-0.117,-0.023l-0.117,-0.023l-0.116,-0.023l-0.119,-0.022l-0.117,-0.022l-0.117,-0.021l-0.117,-0.022l-0.118,-0.02l-0.117,-0.021l-0.119,-0.02l-0.118,-0.02l-0.117,-0.019l-0.119,-0.019l-0.119,-0.019l-0.118,-0.018l-0.119,-0.018l-0.118,-0.018l-0.119,-0.017l-0.12,-0.017l-0.119,-0.017l-0.119,-0.016l-0.119,-0.015l-0.119,-0.016l-0.12,-0.015l-0.12,-0.015l-0.12,-0.014l-0.12,-0.014l-0.12,-0.013l-0.12,-0.013l-0.12,-0.013l-0.121,-0.013l-0.121,-0.012l-0.12,-0.012l-0.12,-0.011l-0.121,-0.011l-0.122,-0.01l-0.121,-0.01l-0.121,-0.01l-0.122,-0.01l-0.121,-0.009l-0.121,-0.008l-0.122,-0.009l-0.122,-0.008l-0.122,-0.007l-0.122,-0.007l-0.122,-0.007l-0.122,-0.007l-0.123,-0.006l-0.122,-0.005l-0.122,-0.005l-0.123,-0.005l-0.123,-0.005l-0.123,-0.004l-0.122,-0.004l-0.124,-0.003l-0.123,-0.003l-0.123,-0.002l-0.124,-0.003l-0.123,-0.001l-0.123,-0.002l-0.124,-0.001l-0.124,0l-0.124,0l-0.123,0Z" style="fill:#f00;"/></g></svg>