<?xml version="1.0" encoding="UTF-8" standalone="no"?>
<!DOCTYPE svg PUBLIC "-//W3C//DTD SVG 1.1//EN" "http://www.w3.org/Graphics/SVG/1.1/DTD/svg11.dtd">
<svg width="100%" height="100%" viewBox="0 0 3000 3001" version="1.1" xmlns="http://www.w3.org/2000/svg" xmlns:xlink="http://www.w3.org/1999/xlink" xml:space="preserve" xmlns:serif="http://www.serif.com/" style="fill-rule:evenodd;clip-rule:evenodd;stroke-linejoin:round;stroke-miterlimit:2;">
    <g transform="matrix(1,0,0,1,-500.3,-500)">
        <path d="M2175.55,2301.16L2920.77,1555.94C2942.97,1533.74 2977.17,1528.34 3005.97,1540.94C3154.78,1605.74 3329.38,1591.34 3466.19,1498.34C3505.79,1471.34 3511.19,1415.54 3477.59,1381.34L3047.98,951.724L2618.96,522.111C2585.36,488.51 2528.96,493.91 2501.96,533.512C2408.96,670.916 2395.16,844.921 2459.36,993.725C2471.96,1023.13 2466.56,1056.73 2444.36,1078.93L1699.14,1824.75C1672.14,1851.75 1628.93,1854.75 1599.53,1830.75C1383.53,1656.75 1075.72,1653.14 855.511,1818.75C818.91,1846.35 815.909,1900.35 848.31,1932.15L1284.6,2368.44C1284.6,2368.44 791.871,2888.59 673.785,3013.25C657.19,3030.76 644.734,3051.78 637.333,3074.75C617.033,3137.74 573.34,3273.34 540.717,3374.58C532.913,3398.79 539.283,3425.34 557.226,3443.38C575.168,3461.42 601.681,3467.93 625.939,3460.25C727.225,3428.21 862.859,3385.31 926.21,3365.26C949.494,3357.9 970.804,3345.35 988.534,3328.55C1113.78,3209.91 1633.01,2718.05 1633.01,2718.05L2066.95,3151.99C2099.35,3184.39 2153.35,3181.39 2180.35,3144.79C2345.96,2924.58 2342.35,2616.77 2168.35,2400.77C2145.55,2371.37 2148.55,2328.17 2175.55,2301.16Z" style="fill:rgb(68,68,68);fill-rule:nonzero;"/>
    </g>
</svg>
