<?xml version="1.0" encoding="UTF-8" standalone="no"?><!DOCTYPE svg PUBLIC "-//W3C//DTD SVG 1.1//EN" "http://www.w3.org/Graphics/SVG/1.1/DTD/svg11.dtd"><svg width="100%" height="100%" viewBox="0 0 32 32" version="1.1" xmlns="http://www.w3.org/2000/svg" xmlns:xlink="http://www.w3.org/1999/xlink" xml:space="preserve" xmlns:serif="http://www.serif.com/" style="fill-rule:evenodd;clip-rule:evenodd;stroke-linejoin:round;stroke-miterlimit:2;"><rect id="Artboard2" x="0" y="0" width="32" height="32" style="fill:none;"/><rect id="Artboard1" x="0" y="0" width="32" height="19.799" style="fill:none;"/><g><path d="M32,15.999c0,-5.418 -4.391,-9.809 -9.808,-9.809l-12.384,0.001c-5.417,0 -9.808,4.391 -9.808,9.808l0,0.003c0,5.417 4.391,9.808 9.808,9.808l12.384,0c5.417,0 9.808,-4.391 9.808,-9.808l0,-0.003Z" style="fill:#f00;"/><path d="M21.656,15.101l-8.856,-4.871c-0.227,-0.126 -0.504,-0.122 -0.728,0.011c-0.224,0.133 -0.362,0.373 -0.362,0.634l0,9.744c0,0.261 0.138,0.502 0.362,0.633c0.115,0.07 0.245,0.102 0.374,0.102c0.122,0 0.244,-0.029 0.355,-0.09l8.855,-4.875c0.236,-0.128 0.381,-0.375 0.381,-0.645c0,-0.268 -0.145,-0.515 -0.381,-0.644Z" style="fill:#fff;fill-rule:nonzero;"/></g></svg>