<?xml version="1.0" encoding="UTF-8" standalone="no"?><!DOCTYPE svg PUBLIC "-//W3C//DTD SVG 1.1//EN" "http://www.w3.org/Graphics/SVG/1.1/DTD/svg11.dtd"><svg viewBox="0 0 27 26" version="1.1" xmlns="http://www.w3.org/2000/svg" xmlns:xlink="http://www.w3.org/1999/xlink" xml:space="preserve" xmlns:serif="http://www.serif.com/" style="fill-rule:evenodd;clip-rule:evenodd;stroke-linejoin:round;stroke-miterlimit:2;"><g id="Menu-Icon" serif:id="Menu Icon"><path d="M26.21,2.001c0,-1.043 -0.847,-1.89 -1.89,-1.89l-22.374,0c-1.043,0 -1.89,0.847 -1.89,1.89c0,1.043 0.847,1.89 1.89,1.89l22.374,0c1.043,0 1.89,-0.847 1.89,-1.89Z" style="fill:#f00;"/><path d="M26.21,23.548c0,-1.044 -0.847,-1.891 -1.89,-1.891l-22.374,0c-1.043,0 -1.89,0.847 -1.89,1.891c0,1.043 0.847,1.89 1.89,1.89l22.374,0c1.043,0 1.89,-0.847 1.89,-1.89Z" style="fill:#f00;"/><path d="M26.21,12.774c0,-1.043 -0.847,-1.89 -1.89,-1.89l-22.374,0c-1.043,0 -1.89,0.847 -1.89,1.89c0,1.044 0.847,1.891 1.89,1.891l22.374,0c1.043,0 1.89,-0.847 1.89,-1.891Z" style="fill:#f00;"/></g></svg>