<?xml version="1.0" encoding="UTF-8" standalone="no"?>
<!DOCTYPE svg PUBLIC "-//W3C//DTD SVG 1.1//EN" "http://www.w3.org/Graphics/SVG/1.1/DTD/svg11.dtd">
<svg width="100%" height="100%" viewBox="0 0 552 2299" version="1.1" xmlns="http://www.w3.org/2000/svg" xmlns:xlink="http://www.w3.org/1999/xlink" xml:space="preserve" xmlns:serif="http://www.serif.com/" style="fill-rule:evenodd;clip-rule:evenodd;stroke-linejoin:round;stroke-miterlimit:2;">
    <g transform="matrix(1,0,0,1,-1514.33,-86.2066)">
        <g transform="matrix(1.54393,0,0,1.54393,1172.6,468.688)">
            <path d="M540.812,394.331C531.431,394.331 522.858,397.767 516.264,403.437L516.264,402.895C516.264,382.085 499.393,365.215 478.584,365.215C468.475,365.215 459.305,369.202 452.538,375.679C448.763,358.855 433.746,346.28 415.783,346.28C402.674,346.28 391.134,352.979 384.384,363.135L384.384,259.346C384.384,238.536 367.513,221.666 346.704,221.666C325.892,221.666 309.024,238.536 309.024,259.346L309.024,459.353L309.019,459.353L309.019,478.885C309.019,482.194 306.268,484.879 302.959,484.879C299.648,484.879 296.745,482.194 296.745,478.885L296.745,412.734C296.696,391.966 279.849,375.145 259.069,375.145C238.257,375.145 221.389,392.015 221.389,412.825L221.389,528.381C221.269,531.047 221.387,533.724 221.387,536.42C221.387,583.481 239.492,626.268 269.364,658.135L530.58,658.135C558.308,628.508 576.034,589.445 578.389,546.28C578.564,544.814 578.665,536.444 578.665,536.444L578.665,428.585C578.665,407.776 561.622,394.331 540.812,394.331ZM251.738,750.91L251.675,695.085C251.665,683.836 260.776,674.742 272.025,674.733L527.941,674.733C539.188,674.725 548.315,683.836 548.324,695.085L548.326,750.912C548.334,762.159 539.286,771.286 528.037,771.295L272.121,771.297C260.874,771.305 251.749,762.157 251.738,750.91" style="fill:rgb(255,0,0);fill-rule:nonzero;"/>
        </g>
        <g transform="matrix(3.14125e-17,-0.362173,0.711145,2.60493e-17,956.134,1052.21)">
            <path d="M1019.49,1308.57L1019.49,1037.05L1905.6,1037.05L1905.6,784.922L2667.24,1172.81L1905.6,1560.7L1905.6,1308.57L1019.49,1308.57Z" style="fill:rgb(255,0,0);"/>
        </g>
        <g transform="matrix(1.29408e-17,0.362173,-0.711145,6.10408e-17,2624.21,1418.23)">
            <path d="M1019.49,1308.57L1019.49,1037.05L1905.6,1037.05L1905.6,784.922L2667.24,1172.81L1905.6,1560.7L1905.6,1308.57L1019.49,1308.57Z" style="fill:rgb(255,0,0);"/>
        </g>
    </g>
</svg>
