<?xml version="1.0" encoding="UTF-8" standalone="no"?><!DOCTYPE svg PUBLIC "-//W3C//DTD SVG 1.1//EN" "http://www.w3.org/Graphics/SVG/1.1/DTD/svg11.dtd"><svg width="100%" height="100%" viewBox="0 0 25 26" version="1.1" xmlns="http://www.w3.org/2000/svg" xmlns:xlink="http://www.w3.org/1999/xlink" xml:space="preserve" xmlns:serif="http://www.serif.com/" style="fill-rule:evenodd;clip-rule:evenodd;stroke-linejoin:round;stroke-miterlimit:2;"><g id="Search-Icon" serif:id="Search Icon"><path id="Handle" d="M23.474,24.754c0.716,-0.735 0.716,-1.929 0.001,-2.664l-6.145,-6.313c-0.715,-0.734 -1.877,-0.734 -2.593,0.001c-0.715,0.735 -0.715,1.928 0,2.663l6.145,6.313c0.715,0.735 1.877,0.735 2.592,0Z"/><path id="Glas" d="M10.446,0.14c4.645,0.045 9.026,3.685 9.947,8.443c1.263,6.523 -4.643,13.691 -11.818,12.371c-4.194,-0.771 -7.712,-4.505 -8.308,-8.859c-0.796,-5.821 3.842,-11.853 9.981,-11.954c0.066,-0.001 0.132,-0.001 0.198,-0.001Zm-0.109,3.74c-3.082,0.03 -5.954,2.515 -6.446,5.681c-0.593,3.821 2.629,7.817 6.489,7.817c2.989,0 5.826,-2.352 6.434,-5.389c0.766,-3.826 -2.229,-8.041 -6.349,-8.108c-0.043,-0.001 -0.085,-0.001 -0.128,-0.001Z"/></g></svg>