<?xml version="1.0" encoding="UTF-8" standalone="no"?><!DOCTYPE svg PUBLIC "-//W3C//DTD SVG 1.1//EN" "http://www.w3.org/Graphics/SVG/1.1/DTD/svg11.dtd"><svg width="100%" height="100%" viewBox="0 0 10 12" version="1.1" xmlns="http://www.w3.org/2000/svg" xmlns:xlink="http://www.w3.org/1999/xlink" xml:space="preserve" xmlns:serif="http://www.serif.com/" style="fill-rule:evenodd;clip-rule:evenodd;stroke-linejoin:round;stroke-miterlimit:2;"><path d="M7.792,10.707c-0.5,0 -0.905,-0.407 -0.905,-0.906c0,-0.499 0.405,-0.905 0.905,-0.905c0.499,0 0.906,0.406 0.906,0.905c0,0.499 -0.407,0.906 -0.906,0.906m-6.499,-4.7c0,-0.499 0.407,-0.906 0.906,-0.906c0.289,0 0.546,0.137 0.712,0.346l0.002,0.004c0.119,0.153 0.191,0.346 0.191,0.556c0,0.209 -0.072,0.402 -0.192,0.555c0,0.001 -0.001,0.003 -0.002,0.004c0,0 0,0.001 -0.002,0.002c-0.166,0.209 -0.421,0.344 -0.709,0.344c-0.499,0 -0.906,-0.406 -0.906,-0.905m6.499,-4.713c0.499,0 0.906,0.407 0.906,0.906c0,0.499 -0.407,0.905 -0.906,0.905c-0.5,0 -0.905,-0.406 -0.905,-0.905c0,-0.499 0.405,-0.906 0.905,-0.906m0,6.308c-0.583,0 -1.113,0.229 -1.506,0.602l-2.019,-1.457c0.083,-0.232 0.131,-0.481 0.131,-0.74c0,-0.261 -0.048,-0.51 -0.131,-0.743l2.019,-1.467c0.393,0.373 0.923,0.602 1.506,0.602c1.213,0 2.199,-0.987 2.199,-2.199c0,-1.213 -0.986,-2.2 -2.199,-2.2c-1.212,0 -2.199,0.987 -2.199,2.2c0,0.16 0.018,0.315 0.05,0.465l-2.153,1.565c-0.363,-0.265 -0.809,-0.423 -1.291,-0.423c-1.213,0 -2.199,0.987 -2.199,2.2c0,1.212 0.986,2.199 2.199,2.199c0.483,0 0.929,-0.158 1.292,-0.424l2.152,1.553c-0.032,0.151 -0.05,0.306 -0.05,0.466c0,1.213 0.987,2.199 2.199,2.199c1.213,0 2.199,-0.986 2.199,-2.199c0,-1.212 -0.986,-2.199 -2.199,-2.199"/></svg>