<?xml version="1.0" encoding="UTF-8" standalone="no"?>
<!DOCTYPE svg PUBLIC "-//W3C//DTD SVG 1.1//EN" "http://www.w3.org/Graphics/SVG/1.1/DTD/svg11.dtd">
<svg width="100%" height="100%" viewBox="0 0 50 45" version="1.1" xmlns="http://www.w3.org/2000/svg" xmlns:xlink="http://www.w3.org/1999/xlink" xml:space="preserve" xmlns:serif="http://www.serif.com/" style="fill-rule:evenodd;clip-rule:evenodd;stroke-linejoin:round;stroke-miterlimit:2;">
    <g transform="matrix(1,0,0,1,-2073,-923)">
        <g transform="matrix(4.46973,0,0,2.5533,-1617.16,10.2474)">
            <g transform="matrix(0.253628,0,0,0.416558,-10.522,-32.1065)">
                <path d="M3317.99,937.862C3318.09,937.561 3318.36,937.36 3318.65,937.36C3318.95,937.36 3319.22,937.561 3319.32,937.862C3320.52,941.558 3322.99,949.181 3323.65,951.203C3323.75,951.504 3324.01,951.705 3324.31,951.705C3326.37,951.705 3334.29,951.705 3338.24,951.705C3338.55,951.705 3338.82,951.918 3338.91,952.231C3339,952.544 3338.89,952.883 3338.63,953.067C3335.45,955.38 3329.16,959.949 3327.44,961.197C3327.18,961.387 3327.07,961.739 3327.18,962.057C3327.85,964.117 3330.26,971.559 3331.47,975.267C3331.57,975.57 3331.47,975.908 3331.23,976.103C3330.99,976.298 3330.66,976.308 3330.41,976.127C3327.24,973.823 3320.72,969.08 3319.05,967.869C3318.81,967.697 3318.5,967.697 3318.26,967.869C3316.59,969.08 3310.07,973.823 3306.89,976.127C3306.65,976.308 3306.32,976.298 3306.08,976.103C3305.84,975.908 3305.74,975.57 3305.84,975.267C3307.04,971.559 3309.46,964.117 3310.13,962.057C3310.24,961.739 3310.13,961.387 3309.87,961.197C3308.15,959.949 3301.86,955.38 3298.68,953.067C3298.42,952.883 3298.31,952.544 3298.4,952.231C3298.49,951.918 3298.76,951.705 3299.07,951.705C3303.02,951.705 3310.94,951.705 3313,951.705C3313.3,951.705 3313.56,951.504 3313.66,951.203C3314.32,949.181 3316.79,941.558 3317.99,937.862Z" style="fill:white;"/>
            </g>
        </g>
    </g>
</svg>
