<?xml version="1.0" encoding="UTF-8" standalone="no"?><!DOCTYPE svg PUBLIC "-//W3C//DTD SVG 1.1//EN" "http://www.w3.org/Graphics/SVG/1.1/DTD/svg11.dtd"><svg width="100%" height="100%" viewBox="0 0 19 21" version="1.1" xmlns="http://www.w3.org/2000/svg" xmlns:xlink="http://www.w3.org/1999/xlink" xml:space="preserve" xmlns:serif="http://www.serif.com/" style="fill-rule:evenodd;clip-rule:evenodd;stroke-linejoin:round;stroke-miterlimit:2;"><g><path d="M9.5,14.89c0.153,0 0.306,0.037 0.446,0.11l3.56,1.872l-0.68,-3.965c-0.053,-0.311 0.05,-0.628 0.276,-0.848l2.88,-2.808l-3.98,-0.578c-0.312,-0.045 -0.582,-0.241 -0.722,-0.524l-1.78,-3.607l-1.78,3.607c-0.14,0.283 -0.41,0.479 -0.722,0.524l-3.98,0.578l2.88,2.808c0.226,0.22 0.329,0.537 0.276,0.848l-0.68,3.965l3.56,-1.872c0.14,-0.073 0.293,-0.11 0.446,-0.11m5.279,4.692c-0.153,0 -0.306,-0.037 -0.446,-0.11l-4.833,-2.541l-4.833,2.541c-0.324,0.169 -0.714,0.141 -1.009,-0.073c-0.296,-0.214 -0.443,-0.578 -0.382,-0.937l0.924,-5.382l-3.911,-3.812c-0.261,-0.254 -0.355,-0.635 -0.242,-0.982c0.113,-0.347 0.413,-0.6 0.774,-0.652l5.403,-0.785l2.417,-4.897c0.161,-0.327 0.494,-0.534 0.859,-0.534c0.365,0 0.698,0.207 0.859,0.534l2.417,4.897l5.403,0.785c0.361,0.052 0.661,0.305 0.774,0.652c0.113,0.347 0.019,0.728 -0.242,0.982l-3.911,3.812l0.924,5.382c0.061,0.359 -0.087,0.723 -0.382,0.937c-0.167,0.121 -0.364,0.183 -0.563,0.183" style="fill:#f00;fill-rule:nonzero;"/></g></svg>