<?xml version="1.0" encoding="UTF-8" standalone="no"?>
<!DOCTYPE svg PUBLIC "-//W3C//DTD SVG 1.1//EN" "http://www.w3.org/Graphics/SVG/1.1/DTD/svg11.dtd">
<svg width="100%" height="100%" viewBox="0 0 39 31" version="1.1" xmlns="http://www.w3.org/2000/svg" xmlns:xlink="http://www.w3.org/1999/xlink" xml:space="preserve" xmlns:serif="http://www.serif.com/" style="fill-rule:evenodd;clip-rule:evenodd;stroke-linejoin:round;stroke-miterlimit:2;">
    <g>
        <g>
            <path d="M35.882,30.554C36.934,30.554 38.068,29.614 38.068,28.171C38.068,28.171 38.068,2.677 38.068,2.677C38.068,1.234 36.934,0.294 35.882,0.294L2.266,0.294C1.211,0.294 0.08,1.234 0.08,2.677L0.08,28.171C0.08,29.614 1.211,30.554 2.266,30.554C2.266,30.554 35.882,30.554 35.882,30.554ZM3.39,3.604L3.39,27.244L34.758,27.244L34.758,3.604L3.39,3.604Z" style="fill:rgb(255,0,0);"/>
            <path d="M23.143,12.057L17.332,8.881C16.875,8.633 16.317,8.64 15.867,8.904C15.408,9.175 15.132,9.662 15.132,10.184L15.132,16.537C15.132,17.064 15.411,17.551 15.867,17.817C16.096,17.953 16.358,18.022 16.62,18.022C16.862,18.022 17.105,17.963 17.327,17.844L23.143,14.662C23.619,14.402 23.916,13.901 23.916,13.359C23.916,12.817 23.62,12.317 23.142,12.057L23.143,12.057ZM17.142,15.654L21.335,13.36L17.142,11.068L17.142,15.654Z" style="fill:rgb(255,0,0);"/>
            <path d="M1.734,24.959L36.413,24.959C37.326,24.959 38.068,24.217 38.068,23.304C38.068,22.391 37.326,21.649 36.413,21.649L1.734,21.649C0.821,21.649 0.079,22.391 0.079,23.304C0.079,24.217 0.821,24.959 1.734,24.959Z" style="fill:rgb(255,0,0);"/>
        </g>
    </g>
</svg>
